<svg id="Capa_1" enable-background="new 0 0 512 512" height="512" viewBox="0 0 512 512" width="512" xmlns="http://www.w3.org/2000/svg"><g><path d="m15 392h16v105c0 8.284 6.716 15 15 15h420c8.284 0 15-6.716 15-15v-105h16c8.284 0 15-6.716 15-15s-6.716-15-15-15h-46v-76c0-8.284-6.716-15-15-15h-15v-61c0-8.284-6.716-15-15-15h-15v-60c0-8.284-6.716-15-15-15h-15v-32.58c17.459-6.192 30-22.865 30-42.42 0-24.813-20.187-45-45-45-8.284 0-15 6.716-15 15s6.716 15 15 15c8.271 0 15 6.729 15 15s-6.729 15-15 15h-45v-15c0-24.813-20.187-45-45-45s-45 20.187-45 45v15h-45c-8.271 0-15-6.729-15-15s6.729-15 15-15c8.284 0 15-6.716 15-15s-6.716-15-15-15c-24.813 0-45 20.187-45 45 0 19.555 12.541 36.228 30 42.42v32.58h-15c-8.284 0-15 6.716-15 15v60h-15c-8.284 0-15 6.716-15 15v61h-15c-8.284 0-15 6.716-15 15v76h-46c-8.284 0-15 6.716-15 15s6.716 15 15 15zm46 0h30v90h-30zm330 0v90h-90v-30h15c8.284 0 15-6.716 15-15s-6.716-15-15-15h-120c-8.284 0-15 6.716-15 15s6.716 15 15 15h15v30h-90v-90zm-150-302h30v30h-30zm30 60v45h-30v-45zm0 75v46h-30v-46zm0 76v61h-30v-61zm0 151v30h-30v-30zm180 30h-30v-90h30zm-150-120v-61h120v61zm0-91v-46h90v46zm0-76v-45h60v45zm30-75h-30v-30h30zm-90-75c0-8.271 6.729-15 15-15s15 6.729 15 15v15h-30zm-60 45h30v30h-30zm-30 60h60v45h-60zm-30 75h90v46h-90zm-30 76h120v61h-120z"/></g></svg>