<svg id="Layer_1" height="512" viewBox="0 0 512 512" width="512" xmlns="http://www.w3.org/2000/svg" data-name="Layer 1"><path d="m228.7 100.453a29.38 29.38 0 1 1 58.76 0v5.683h8.116v-35.715h-77.745v35.715h10.869z"/><path d="m238.7 146.168v5.684h38.76v-5.684a19.38 19.38 0 1 0 -38.76 0z"/><path d="m228.7 146.168a29.38 29.38 0 1 1 58.76 0v5.684h8.116v-35.716h-77.745v35.716h10.869z"/><path d="m238.7 100.453v5.683h38.76v-5.683a19.38 19.38 0 1 0 -38.76 0z"/><path d="m228.7 191.883a29.38 29.38 0 1 1 58.76 0v5.684h8.116v-35.715h-77.745v35.715h10.869z"/><path d="m238.7 191.883v5.684h38.76v-5.684a19.38 19.38 0 1 0 -38.76 0z"/><path d="m238.7 237.6v5.683h38.76v-5.683a19.38 19.38 0 1 0 -38.76 0z"/><path d="m228.7 289.458a29.38 29.38 0 1 1 58.76 0v5.684h8.116v-41.86h-77.745v41.86h10.869z"/><path d="m228.7 237.6a29.38 29.38 0 1 1 58.76 0v5.683h8.116v-35.716h-77.745v35.715h10.869z"/><path d="m360.554 72.742a4.6 4.6 0 0 0 -.547-2.321h-54.432v35.715h54.979z"/><path d="m305.575 37.193h25.227v23.228h-25.227z"/><path d="m389.082 164.173c0-1.418-.8-2.321-1.222-2.321h-82.285v35.715h83.507z"/><path d="m374.966 118.458a3.308 3.308 0 0 0 -.767-2.322h-68.624v35.716h69.391z"/><path d="m348.856 25.03a4.027 4.027 0 1 0 -8.054 0v35.391h8.054z"/><path d="m281.645 37.193h13.931v23.228h-13.931z"/><path d="m399.631 209.888c0-1.237-.794-2.321-1.7-2.321h-92.356v35.715h94.056z"/><path d="m251.449 37.714a5 5 0 0 1 10 0v22.707h10.2v-23.263a15.932 15.932 0 1 0 -31.863 0v23.263h11.667z"/><path d="m217.831 37.193h11.951v23.228h-11.951z"/><path d="m413.322 255.6a2.323 2.323 0 0 0 -2.322-2.318h-105.425v41.86h107.747z"/><path d="m238.7 289.458v5.684h38.76v-5.684a19.38 19.38 0 1 0 -38.76 0z"/><path d="m256.414 384.307a24.442 24.442 0 0 0 -24.409 24.419v58.49h48.819v-58.49a24.442 24.442 0 0 0 -24.41-24.419z"/><path d="m168.866 333.71h17.42v133.506h-17.42z"/><path d="m351.668 333.71h47.582v133.506h-47.582z"/><path d="m324.247 333.71h17.421v133.506h-17.421z"/><path d="m314.247 467.216v-133.506h-117.961v133.506h25.719v-58.49a34.41 34.41 0 1 1 68.819 0v58.49z"/><path d="m182.453 37.193h25.378v23.228h-25.378z"/><path d="m86.606 333.71h17.42v133.506h-17.42z"/><path d="m62.643 477.216h386.715v13.784h-386.715z"/><path d="m158.866 467.216v-133.506h-44.841v133.506zm-35.515-117.516a5 5 0 0 1 10 0v9.619a5 5 0 0 1 -10 0zm0 31.97a5 5 0 0 1 10 0v46.926a5 5 0 0 1 -10 0z"/><path d="m409.25 333.71h17.421v133.506h-17.421z"/><path d="m207.831 161.852h-82.431c-.42 0-1.222.9-1.222 2.321v33.394h83.658z"/><path d="m207.831 116.136h-68.776a3.314 3.314 0 0 0 -.766 2.322v33.394h69.542z"/><path d="m172.453 25.03a4.028 4.028 0 1 0 -8.055 0v35.391h8.055z"/><path d="m207.831 70.421h-54.583a4.6 4.6 0 0 0 -.547 2.321v33.394h55.13z"/><path d="m442.26 323.322v-8.9a9.292 9.292 0 0 0 -9.279-9.284h-352.707a9.293 9.293 0 0 0 -9.28 9.284v9.284h370.88a.387.387 0 0 0 .386-.384z"/><path d="m207.831 253.282h-105.58a2.323 2.323 0 0 0 -2.318 2.322v39.538h107.9z"/><path d="m207.831 207.567h-92.508c-.9 0-1.7 1.084-1.7 2.321v33.394h94.208z"/></svg>