<svg id="Layer_1" viewBox="0 0 64 64" xmlns="http://www.w3.org/2000/svg"><path d="m58.16 54h1.84v-2h-12.66l1.65-14.89c.03-.28-.06-.57-.25-.78s-.46-.33-.75-.33h-2.67l-1.33-2v-2l-3-2-5 1-1.61-2.93-5.39-2.07-4 2-1 3h-3l-3 3 .67 2h-2.67c-.28 0-.56.12-.75.33s-.28.49-.25.78l1.65 14.89h-12.64v2h3.69l-1.81 6h-3.87v2h60v-2h-5.65l1.81-6zm-47.97 6h-2.23l1.81-6h2.23l-1.82 6zm4.36 0h-2.27l1.82-6h2.27l-1.81 6zm4.29 0h-2.2l1.22-4.03s.09.03.14.03h2.04l-1.21 4zm8.42 0h-6.33l.47-1.55c.91.95 2.19 1.55 3.61 1.55.9 0 1.73-.26 2.46-.68l-.2.68zm-4.26-5c0-1.1.9-2 2-2s2 .9 2 2-.9 2-2 2-2-.9-2-2zm8.84 5h-2.49l1.21-4h2.49zm10 0h-7.91l.76-2.51c.87 1.49 2.46 2.51 4.31 2.51 1.22 0 2.33-.46 3.2-1.19zm-4.84-5c0-1.1.9-2 2-2s2 .9 2 2-.9 2-2 2-2-.9-2-2zm2-5c-2.41 0-4.43 1.72-4.9 4h-4.2c-.46-2.28-2.48-4-4.9-4s-4.43 1.72-4.9 4h-1.21l-1.78-16h29.77l-1.78 16h-1.21c-.46-2.28-2.48-4-4.9-4zm6.87 10h-1.94l1.21-4h.86c.51 0 .94-.38.99-.89l.12-1.11h.57zm4.32 0h-2.23l1.81-6h2.23l-1.82 6zm4.07 0h-1.98l1.82-6h1.98l-1.81 6z"/><path d="m59.45 31.11-1.65-.83-.8-8.37c-.03-.27-.16-.52-.37-.69l-4.79-3.83-2.9-7.74c-.09-.24-.26-.43-.49-.54l-4-2-.05.1-.44-1.49c-.1-.33-.36-.59-.7-.68l-11-3c-.16-.04-.34-.05-.5 0l-12 3c-.36.09-.65.38-.73.74l-2.17 9.23-4.1 1.03c-.26.07-.49.24-.62.47l-3.85 6.74-5.73 2.86c-.36.18-.58.57-.55.97l.91 11.84-.91 3.09h11.54l-.52-4.67c-.09-.85.18-1.7.75-2.33.57-.64 1.38-1 2.24-1 0-.52.19-1.03.58-1.41l3-3c.38-.38.88-.59 1.41-.59h1.56l.54-1.63c.17-.5.53-.92 1-1.16l4-2c.5-.25 1.09-.28 1.61-.08l5.39 2.07c.44.17.81.49 1.04.9l.9 1.64 3.56-.71c.52-.1 1.06 0 1.5.3l3 2c.56.37.89 1 .89 1.66v1.39l.4.61h1.6c.85 0 1.67.36 2.24 1s.84 1.48.75 2.33l-.52 4.67h11.54l-2.02-10.22c-.07-.29-.26-.54-.53-.68zm-44.37-8.57-4.74 5.69-4.85 2.91c-.2.12-.36.31-.43.54l-.55 1.85-.46-5.94 5.4-2.7c.18-.09.32-.23.42-.4l3.79-6.63 2.68-.67zm9.9-7.34c-.05.26-.21.49-.43.64l-2.71 1.81-.89 2.67-1.9-.63 1-3c.07-.21.21-.39.39-.52l2.66-1.77.92-4.59 1.96.39zm18.02.8h-2v-2.5l-3.6-2.7c-.25-.19-.4-.48-.4-.8v-3h2v2.5l3.6 2.7c.25.19.4.48.4.8zm10.63 12.2-4.73-5.68-3.78-12.84 2.08 1.04 2.86 7.63c.06.17.17.32.31.43l4.67 3.74.64 6.71-2.05-1.02z"/></svg>