<svg clip-rule="evenodd" fill-rule="evenodd" height="512" image-rendering="optimizeQuality" shape-rendering="geometricPrecision" text-rendering="geometricPrecision" viewBox="0 0 1706.66 1706.66" width="512" xmlns="http://www.w3.org/2000/svg" xmlns:xodm="http://www.corel.com/coreldraw/odm/2003"><g id="Layer_x0020_1"><path d="m249.97 755.09 61.46 3.57 40.54-112.04 144.02 144.04-168.09 168.09c-18.88 18.87 9.93 46.63 28.27 28.3l182.23-182.25c7.82-7.8 7.82-20.47 0-28.27l-171.41-171.43 79.69-220.24c2.86-7.92 10.39-13.2 18.8-13.2h120.43l129.2-177.18c80.02 115.38 167.62 232.2 250.65 346.21 3.75 5.15 9.76 8.21 16.15 8.21h116.54l135.56 374.65c3.03 8.32 11.6 13.84 19.97 13.15l117.09-6.8 52.61 265.2h-390.65v-347.2c73.76 0 62.5 10.92 62.5-100.04 0-11.04-8.96-20-20-20l-444.42-.01c-11.04 0-20 8.96-20 20 0 110.95-11.25 100.04 62.51 100.04v347.2h-653.52c-24.94 0-29.12-40 2.87-40l24.61-297.1c59.57 30.68 167.38 105.33 160.3 162.09-3.26 26.11 36.43 31.07 39.68 4.95 9.98-79.9-105.78-158.91-152.16-187.14-4.12-2.5-24.57-13.06-44.23-23.12l13.01-157.09c1.29-15.48 19.08-23.67 31.68-14.53l154.1 111.91zm743.06 440.02h-279.42v-347.2h279.42zm-341.92-387.18h404.43v-40.05h-404.43zm88.97-647.7 97.08-133.13c7.53-10.31 24.8-10.31 32.31 0l251.28 344.56h120.41c8.41 0 15.93 5.28 18.8 13.2l135.24 373.82 119.59-6.94c9.44-.65 18.81 6.28 20.76 16.08l76.73 387.3h74.23c26.32 0 26.32 40 0 40h-222.09l-57.54-290.05c-1.95-9.79-10.85-16.8-20.76-16.07l-119.59 6.93-135.24-373.81c-2.87-7.92-10.39-13.2-18.8-13.2h-120.42c-84.5-115.87-170.08-230.98-252.02-348.69z"/><path d="m143.1 1279.58c11.61-3.04 22.76-5.95 30.02-9.99 12.78-7.11 37.36-38.08 52.96-38.08h127.87c15.61 0 40.17 30.96 52.96 38.08 7.26 4.04 18.41 6.95 30.04 10h-293.85z"/><path d="m108.41 1530.36-14.1-110.79h391.44l-14.09 110.7c-52.12-51.96-156.46-37.96-181.7 44.98-25.71-83.76-129.21-96.54-181.55-44.89z"/><path d="m515.01 1386.24h-449.96c-48.28 0-48.28-73.32 0-73.32h449.96c48.28 0 48.29 73.32 0 73.32z"/><path d="m185.8 1687.3c-101.41 0-101.39-154.1 0-154.1 101.37 0 101.41 154.1 0 154.1z"/><path d="m394.24 1687.3c-101.41 0-101.39-154.1 0-154.1 101.4 0 101.41 154.1 0 154.1z"/><path d="m630.02 1305.05h-51.8c-48.28 0-48.28-73.32 0-73.32h66.59l.66-3.29h74.8l-.66 3.29h267.46l-.66-3.29h74.78l.66 3.29h66.6c48.28 0 48.27 73.32 0 73.32h-51.81l8.06 39.93h43.76c48.28 0 48.27 73.32 0 73.32h-28.97l8.06 39.93h20.91c45.34 0 54.24 73.32-6.12 73.32l9.96 49.36c9.57 47.47-62.34 61.72-71.86 14.51l-12.88-63.87h-388.43l-12.89 63.87c-9.52 47.21-81.45 32.96-71.87-14.51l9.96-49.36c-60.34 0-51.45-73.32-6.11-73.32h20.9l8.06-39.93h-28.96c-48.28 0-48.28-73.32 0-73.32h43.74zm74.8 0-8.06 39.93h313.16l-8.06-39.93h-297.05zm-22.84 113.25-8.06 39.93h358.84l-8.06-39.93h-342.73z"/></g></svg>