<svg clip-rule="evenodd" fill-rule="evenodd" height="512" image-rendering="optimizeQuality" shape-rendering="geometricPrecision" text-rendering="geometricPrecision" viewBox="0 0 18062 18062" width="512" xmlns="http://www.w3.org/2000/svg"><g id="Layer_x0020_1"><path d="m16555 15172c-635 0-1207-679-1672-679s-1037 679-1672 679-1207-679-1672-679-1037 679-1672 679-1207-679-1672-679-1037 679-1672 679-1207-679-1672-679-1037 679-1672 679-1207-679-1672-679c-316 0-316-481 0-481 635 0 1207 679 1672 679s1037-679 1672-679 1207 679 1672 679 1037-679 1672-679 1207 679 1672 679 1037-679 1672-679 1207 679 1672 679 1037-679 1672-679 1207 679 1672 679c316 0 316 481 0 481zm-12849-2168c-238-263-356-554-391-650l-907-1460c-90-144-345-73-437-30-191 89-369 139-553 139-630 0-1014-554-985-1170 11-221 294-311 430-137 86 110 259 52 331 11 211-123 541-150 837-126-9-37-124-351-191-373-39-13-142 81-213 106-193 67-352 99-486 99-275 0-373-142-402-200-63-129-364-87-439-69-149 36-300-78-300-233 0-644 405-857 630-882 191-27 364-17 522 53 176-183 392-206 502-188 494 82 671-397 1562-378 77 2 106-24 194-136 131-169 298-318 566-215 325 126 507 413 453 748-48 302-276 541-652 677-18 6-106 40-107 77-2 71 99 202 220 254 189 81 194 351 8 439-151 71-288 110-401 135 268 302 277 287 524 671 292 454 599 931 1272 927h9738c1512-193 2577-1823 2588-1840 134-208 462-97 442 150-136 1659-1086 2898-2607 3601h2356c133 0 241 107 241 240v4117c0 133-108 241-241 241h-17558c-133 0-241-108-241-241v-4117c0-133 108-240 241-240zm-1481-2677c256 0 466 111 592 313l921 1483c11 17 20 35 26 55 10 32 275 826 1006 826h283v-1445c-1039-137-1337-1116-1719-1528-358-387-506-547-438-752 66-194 262-209 417-238-197-288-199-725 301-904 340-122 351-299 343-383-23-46-76-99-128-128-131 155-267 382-627 371-687-20-841 389-1428 389-59 0-122-5-185-15-36 2-100 22-150 141-75 178-296 210-411 55-48-59-191-87-322-63-48 9-117 19-174 138 270 8 479 110 599 290 46 2 141-7 307-62 142-97 273-144 400-144 212 0 384 124 511 369 177 339 219 581 132 761-60 126-218 240-370 217-149-23-524-39-676 50-22 13-228 121-450 117 156 321 479 340 776 191 28-14 224-104 464-104zm11599 2677c112-16 948-147 1797-626 902-509 1500-1214 1784-2103-516 535-1326 1175-2330 1298-64 8-1487 2-1679 2v1429zm-909-1429h-1485v1429h1485zm-1966 0h-1484v1429h1484zm-1965 0h-1485v1429h1485zm-1966 0h-1484v1429h1484zm6822-4763h-9070c-998 0-1386-941-1455-1131l-907-1459c-90-145-345-73-437-30-191 88-369 139-553 139-630 0-1014-554-985-1170 11-221 294-312 430-137 84 107 252 54 331 10 220-124 537-150 837-126-15-57-46-144-109-263-49-95-82-110-82-110-65 0-130 78-213 107-193 66-352 99-486 99-275 0-373-142-402-200-37-75-154-91-245-91-197 0-272 78-401-22-58-45-93-115-93-190 0-643 405-856 630-882 191-27 364-16 522 53 176-183 392-205 502-187 494 81 671-398 1562-378 77 1 106-24 194-136 131-169 298-319 566-215 201 77 379 259 444 452 4 14 8 27 10 41 62 421-176 760-653 931-18 6-106 40-107 77-2 71 99 203 220 255 189 81 194 350 8 438-151 72-288 111-401 135 268 303 278 287 524 671 296 461 597 924 1275 928h9735c1507-193 2577-1824 2588-1840 135-208 462-97 442 150-122 1481-889 2658-2218 3402-1002 561-1942 679-2003 679zm-11615-3157c256 0 466 111 592 312l921 1483c11 17 20 36 26 55 10 33 275 826 1006 826h283v-1444c-1039-138-1337-1117-1719-1529-358-387-506-547-438-751 66-194 262-210 417-239-196-287-199-724 301-904 340-122 351-299 343-382-23-47-76-100-128-128-128 151-264 381-627 371-689-20-841 388-1428 388-59 0-122-5-185-14-36 1-100 22-150 140-75 179-296 210-411 56-48-59-191-87-322-63-48 8-117 18-174 137 270 9 479 111 599 291 46 1 141-8 307-63 142-96 274-143 400-143 212 0 384 124 511 368 177 340 219 582 132 762-60 126-218 239-370 216-150-22-523-39-676 50-22 13-228 121-449 118 152 315 474 342 775 191 28-14 224-104 464-104zm3309 2676h1484v-1429h-1484zm1965 0h1485v-1429h-1485zm1966 0h1484v-1429h-1484zm1965 0h1485v-1429h-1485zm1966 0h428c112-16 948-146 1797-625 902-510 1500-1215 1784-2104-516 535-1326 1176-2330 1298-64 8-1487 2-1679 2zm-12903 10790h17077v-3636h-17077zm16062-528c-635 0-1207-678-1672-678s-1037 678-1672 678-1207-678-1672-678-1037 678-1672 678-1207-678-1672-678-1037 678-1672 678-1207-678-1672-678-1037 678-1672 678-1207-678-1672-678c-316 0-316-481 0-481 635 0 1207 678 1672 678s1037-678 1672-678 1207 678 1672 678 1037-678 1672-678 1207 678 1672 678 1037-678 1672-678 1207 678 1672 678 1037-678 1672-678 1207 678 1672 678c316 0 316 481 0 481z"/></g></svg>