<svg id="Glyph" viewBox="0 0 64 64" xmlns="http://www.w3.org/2000/svg"><path d="m54 56c0-2.21-1.79-4-4-4 2.21 0 4-1.79 4-4h-3v-2c0-1.1-.9-2-2-2h-34c-1.1 0-2 .9-2 2v2h-3c0 2.21 1.79 4 4 4-2.21 0-4 1.79-4 4h-2v4h48v-4z"/><path d="m47.88 41.75c-1.23-2.47-1.88-5.19-1.88-7.95v-2.31c0-5.98-3.89-11.04-9.27-12.81l-.81-3.88c-.1-.46-.51-.8-.98-.8h.06l-.91-9.1c-.05-.51-.48-.9-.99-.9h-2.19c-.51 0-.94.39-.99.9l-.91 9.1h.06c-.47 0-.88.33-.98.8l-.81 3.88c-5.38 1.77-9.27 6.83-9.27 12.81v2.31c0 2.76-.64 5.48-1.88 7.95l-.12.25h32l-.12-.25zm-24.32-5.19-2.65-2.65 2.65-2.65 2.65 2.65zm1.1-10.22 2.65-2.65 2.65 2.65-2.65 2.65zm7.34 10.22-2.65-2.65 2.65-2.65 2.65 2.65zm2.04-10.22 2.65-2.65 2.65 2.65-2.65 2.65zm6.4 10.22-2.65-2.65 2.65-2.65 2.65 2.65z"/></svg>