<svg id="Capa_1" enable-background="new 0 0 512.021 512.021" height="512" viewBox="0 0 512.021 512.021" width="512" xmlns="http://www.w3.org/2000/svg"><g><g><path d="m475.311 275.154v-43.568h-16.382c-7.073 0-12.806 5.734-12.806 12.806v30.762 33.02l14.594 13.911 14.599-12.392z" fill="#efedef"/><path d="m66.849 275.154v-30.762c0-7.073-5.734-12.806-12.806-12.806h-16.383v43.568l12.855 37.046z" fill="#efedef"/><path d="m442.304 338.133h-362.823l-41.825 34.996v98.63h437.66v-98.63z" fill="#e5e1e5"/><g><g><g id="XMLID_231_"><g><path d="m37.656 275.15h437.66v97.98h-437.66z" fill="#efedef"/></g></g></g></g><path d="m173.038 213.272h167.031v272.484h-167.031z" fill="#efedef"/><g id="XMLID_184_"><path d="m309.836 76.699-38.46-10.542h-26.553l-51.153 33.384-16.939 80.694 26.305 50.227 1.547 5.578h116.323l18.88-33.67 1.28-2.28 3.22-8.09c16.7-42.021 2.11-89.681-34.45-115.301z" fill="#f9f7f8"/><path d="m173.266 202.489 6.841 12.004 34.647-.593 5.954-10.251-.726-3.073-2.808-7.992c-4.65-11.7-6.539-24.425-6.539-36.395 0-31.04 14.94-61 41.32-79.49l26.194-8.686-6.772-1.856h-36.449l-31.791 10.542c-26.38 18.49-41.32 48.45-41.32 79.49 0 11.97 2.22 24.11 6.87 35.81l3.22 8.09z" fill="#efedef"/><g><g><path d="m340.069 213.272h-167.031v272.484h24.31v-214.217c0-11.874 9.625-21.499 21.499-21.499h121.222z" fill="#e5e1e5"/><g><path d="m339.786 202.37c-.54-1.34-1.85-2.28-3.39-2.28h-159.69c-1.57 0-2.92 1-3.44 2.4-.15.4-.23.82-.23 1.27v32.28h19.35 128.52 19.16v-32.28c0-.49-.1-.961-.28-1.39z" fill="#efedef"/></g><path d="m117.36 338.133h-36.654v29.598 96.028h36.654z" fill="#c9bfc8"/><path d="m125.265 275.15h-44.559v92.581 5.398h44.559z" fill="#e5e1e5"/></g></g><path d="m239.332 221.624c-10.687 0-19.35-8.663-19.35-19.35l-.169-2.188-43.107.003c-1.57 0-2.92 1-3.44 2.4-.15.4-.23.82-.23 1.27v32.28h19.35 128.52 19.16v-14.415z" fill="#e5e1e5"/></g><g id="XMLID_222_"><g><path d="m289.392 286.066h-69.869l-16.487 64.243v97.45h107.03v-97.45z" fill="#d7d0d6"/><path d="m310.066 270.481v79.829l-41.98-48.02c-6.1-6.99-16.96-6.99-23.07 0l-41.98 48.02v-79.829c0-2.453 1.988-4.441 4.441-4.441h98.148c2.452-.001 4.441 1.988 4.441 4.441z" fill="#e5e1e5"/></g></g><path d="m143.366 203.65-46.66 38.75v47.049l20.052 20.244h45.058l11.22-20.244v-47.049z" fill="#f9f7f8"/><path d="m163.131 347.298h-46.759l-19.666 25.831v74.63h76.33v-74.63z" fill="#e5e1e5"/><path d="m159.038 309.693h2.778l11.22-20.244v-47.049l-13.998-18.283z" fill="#efedef"/><path d="m96.706 242.403h76.332v-22.247c0-24.562-15.195-46.562-38.166-55.259-22.971 8.697-38.166 30.697-38.166 55.259z" fill="#f9f7f8"/><path d="m396.914 338.133h35.352v133.627h-35.352z" fill="#c9bfc8"/><path d="m410.567 354.806h-51.484l-19.017 17.594h-.13v108.359h76.33v-108.359z" fill="#e5e1e5"/><path d="m406.493 275.15h25.773v97.98h-25.773z" fill="#e5e1e5"/><path d="m384.676 203.65-44.74 38.75v47.049l15.332 20.77h50.12l10.878-20.77v-47.049z" fill="#f9f7f8"/><g><path d="m378.1 318.954c-4.142 0-7.5-3.358-7.5-7.5v-100.052c0-4.142 3.358-7.5 7.5-7.5s7.5 3.358 7.5 7.5v100.052c0 4.142-3.358 7.5-7.5 7.5z" fill="#efedef"/></g><path d="m354.069 359.445-14.003 12.955h-.13v108.36h14.133z" fill="#d7d0d6"/><path d="m416.266 289.449v82.951h-76.2-.13v-82.951z" fill="#efedef"/><path d="m496.479 447.757h-480.937c-4.441 0-8.042 3.6-8.042 8.042v26.454c0 4.441 3.6 8.042 8.042 8.042h480.937c4.441 0 8.042-3.6 8.042-8.042v-26.454c-.001-4.442-3.601-8.042-8.042-8.042z" fill="#efedef"/><path d="m159.038 347.298v100.461h13.998v-74.63l-9.905-25.831z" fill="#d7d0d6"/><path d="m96.706 289.449h76.33v83.68h-76.33z" fill="#efedef"/><path d="m354.069 230.159-14.133 12.241v47.049l14.133 19.146z" fill="#efedef"/><path d="m416.266 242.403h-76.332v-22.247c0-24.562 15.195-46.562 38.166-55.259 22.971 8.697 38.166 30.697 38.166 55.259z" fill="#f9f7f8"/><g fill="#efedef"><path d="m140.976 230.214c-12.287 0-22.247-9.96-22.247-22.247 0-16.296 6.694-31.46 17.906-42.364-.583-.242-1.169-.482-1.763-.707-22.971 8.697-38.166 30.697-38.166 55.259v22.247h76.332v-12.188z"/><path d="m376.07 230.214c-7.794 0-14.113-6.319-14.113-14.113v-8.134c0-16.296 6.694-31.46 17.906-42.364-.583-.242-1.169-.482-1.763-.707-22.971 8.697-38.166 30.697-38.166 55.259v22.247h76.332v-12.188z"/><path d="m304.146 72.999c-7.61-4.58-14.95-9.58-21.99-14.97-5.631-4.32-11.061-8.9-16.288-13.708l-26.661 32.378h69.34 1.29c-1.841-1.289-3.741-2.52-5.691-3.7z"/></g><path d="m279.634 58.03c.425-.326.838-.667 1.261-.995-6.581-5.118-12.905-10.567-18.919-16.355-1.53-1.47-3.51-2.21-5.49-2.21s-3.96.74-5.49 2.21c-6.4 6.16-13.14 11.95-20.18 17.35-7.04 5.39-14.38 10.39-21.99 14.97-1.95 1.18-3.85 2.41-5.69 3.7h1.42 47.398c1.84-1.29 3.74-2.52 5.69-3.7 7.61-4.581 14.95-9.581 21.99-14.97z" fill="#e5e1e5"/><path d="m354.069 289.449h-14.133v82.951h.13 14.003z" fill="#e5e1e5"/><path d="m159.038 289.449h13.998v83.68h-13.998z" fill="#e5e1e5"/></g><path d="m256.486 38.468v-16.742" style="fill:none;stroke:#000;stroke-width:15;stroke-linecap:round;stroke-linejoin:round;stroke-miterlimit:10"/><g><path d="m134.872 312.201c-4.142 0-7.5 3.358-7.5 7.5v23.185c0 4.142 3.358 7.5 7.5 7.5s7.5-3.358 7.5-7.5v-23.185c0-4.142-3.358-7.5-7.5-7.5z"/><path d="m134.872 391.441c-4.142 0-7.5 3.358-7.5 7.5v23.185c0 4.142 3.358 7.5 7.5 7.5s7.5-3.358 7.5-7.5v-23.185c0-4.142-3.358-7.5-7.5-7.5z"/><path d="m59.683 327.701v5.442c0 4.142 3.358 7.5 7.5 7.5s7.5-3.358 7.5-7.5v-5.442c0-4.142-3.358-7.5-7.5-7.5s-7.5 3.358-7.5 7.5z"/><path d="m67.183 403.034c-4.142 0-7.5 3.358-7.5 7.5v5.442c0 4.142 3.358 7.5 7.5 7.5s7.5-3.358 7.5-7.5v-5.442c0-4.142-3.358-7.5-7.5-7.5z"/><path d="m378.1 312.201c-4.142 0-7.5 3.358-7.5 7.5v23.185c0 4.142 3.358 7.5 7.5 7.5s7.5-3.358 7.5-7.5v-23.185c0-4.142-3.358-7.5-7.5-7.5z"/><path d="m378.1 391.441c-4.142 0-7.5 3.358-7.5 7.5v23.185c0 4.142 3.358 7.5 7.5 7.5s7.5-3.358 7.5-7.5v-23.185c0-4.142-3.358-7.5-7.5-7.5z"/><path d="m438.289 327.701v5.442c0 4.142 3.358 7.5 7.5 7.5s7.5-3.358 7.5-7.5v-5.442c0-4.142-3.358-7.5-7.5-7.5s-7.5 3.358-7.5 7.5z"/><path d="m445.789 423.476c4.142 0 7.5-3.358 7.5-7.5v-5.442c0-4.142-3.358-7.5-7.5-7.5s-7.5 3.358-7.5 7.5v5.442c0 4.142 3.357 7.5 7.5 7.5z"/><path d="m496.479 440.256h-13.667v-114.056c0-4.142-3.358-7.5-7.5-7.5s-7.5 3.358-7.5 7.5v39.432h-44.045v-82.978h44.045v11.583c0 4.142 3.358 7.5 7.5 7.5s7.5-3.358 7.5-7.5v-86.901c0-4.142-3.358-7.5-7.5-7.5s-7.5 3.358-7.5 7.5v16.75h-8.882c-11.197 0-20.306 9.109-20.306 20.306v23.262h-14.857v-25.252-22.247c0-25.742-15.139-49.309-38.166-60.21v-9.784c0-4.142-3.358-7.5-7.5-7.5s-7.5 3.358-7.5 7.5v9.783c-4.528 2.144-8.751 4.777-12.614 7.821 1.682-15.079.088-30.465-4.825-45.03-7.911-23.452-23.946-43.398-45.152-56.162-14.717-8.857-28.455-19.388-40.833-31.297-5.994-5.768-15.387-5.769-21.382 0-12.377 11.909-26.115 22.439-40.832 31.297-10.281 6.189-19.353 14.039-26.963 23.334-2.624 3.205-2.153 7.93 1.052 10.554 3.206 2.624 7.93 2.153 10.554-1.052 4.701-5.742 10.062-10.829 15.984-15.213h101.814c32.496 23.98 45.105 66.802 29.907 105.035l-1.333 3.354h-158.986l-1.333-3.354c-8.167-20.547-8.441-43.307-.771-64.088 1.434-3.886-.554-8.199-4.439-9.633-3.886-1.432-8.199.554-9.633 4.439-5.692 15.424-7.62 31.781-5.829 47.817-3.863-3.044-8.086-5.677-12.614-7.821v-9.783c0-4.142-3.358-7.5-7.5-7.5s-7.5 3.358-7.5 7.5v9.783c-23.027 10.901-38.166 34.468-38.166 60.211v22.247 25.252h-14.858v-23.262c0-11.197-9.109-20.306-20.306-20.306h-8.882v-16.75c0-4.142-3.358-7.5-7.5-7.5s-7.5 3.358-7.5 7.5v232.919h-14.619c-8.57 0-15.542 6.973-15.542 15.542v26.455c0 8.57 6.972 15.542 15.542 15.542h480.937c8.57 0 15.542-6.972 15.542-15.542v-26.455c0-8.569-6.973-15.542-15.542-15.542zm-42.856-195.863c0-2.926 2.38-5.306 5.306-5.306h8.882v28.568h-14.188zm-197.429-198.307c.164-.157.419-.157.583 0 8.709 8.38 18.062 16.103 27.918 23.11h-56.419c9.857-7.008 19.209-14.73 27.918-23.11zm211.617 334.546v59.624h-44.045v-59.624zm-157.742 33.994c-4.142 0-7.5 3.358-7.5 7.5v18.13h-92.031v-87.128l40.127-45.906c1.507-1.725 3.598-2.674 5.888-2.674s4.381.949 5.888 2.674l40.127 45.906v37.035c0 4.142 3.358 7.5 7.5 7.5s7.5-3.358 7.5-7.5v-124.121c0-4.142-3.358-7.5-7.5-7.5h-107.03c-4.142 0-7.5 3.358-7.5 7.5v174.214h-15v-196.714h151.992c.013.085.023.172.039.256v196.458h-15v-18.13c0-4.142-3.358-7.5-7.5-7.5zm-7.5-84.29-28.833-32.986c-4.334-4.958-10.597-7.802-17.182-7.802s-12.848 2.844-17.182 7.802l-28.833 32.986v-56.794h92.031v56.794zm-198.363 109.92v-59.624h61.332v59.624zm61.332-190.354v32.052h-23.166v-32.052zm-38.166 32.052h-23.166v-32.052h23.166zm-23.166 15h61.332v68.678h-61.332zm304.56-47.052v32.052h-23.166v-32.052zm-38.166 32.052h-23.031v-32.052h23.031zm-23.031 98.678h61.197v59.624h-61.197zm0-15v-68.678h61.197v68.678zm30.531-192.629c18.455 8.207 30.666 26.803 30.666 47.153v14.747h-61.197v-18.417c1.367-18.89 13.192-35.773 30.531-43.483zm-197.562 34.582h152.031l-.135 20.958h-151.896zm-76.332 12.571c0-20.35 12.211-38.946 30.666-47.153 18.455 8.207 30.666 26.803 30.666 47.153v14.747h-61.332zm-15 145.476h-44.045v-82.978h44.045zm-29.857-121.239v23.262h-14.188v-28.568h8.882c2.925-.001 5.306 2.38 5.306 5.306zm-14.188 136.239h44.045v59.624h-44.045zm451.86 101.621c0 .299-.243.542-.542.542h-480.937c-.299 0-.542-.243-.542-.542v-26.455c0-.299.243-.542.542-.542h480.937c.299 0 .542.243.542.542z"/></g></g></svg>