<svg id="Layer_1" enable-background="new 0 0 68 68" height="512" viewBox="0 0 68 68" width="512" xmlns="http://www.w3.org/2000/svg"><g id="_x32_"><path d="m1.2 30.1c-.2.4-.1.8.3 1s.8.1 1-.3c.5-1 1.4-1.9 2-3.1.8-1.6 1.2-2.9 2.4-4.2 1.4-1.5 3.6-2.6 4.9-4.5.7-1 1.1-2 1.5-3.1.2.8.8 1.6 1.7 1.6 1.1 0 1.5-1.1 1.9-1.3.3-.2 1 .2 1.4.6l.1.1c.7.7 1.6 1.5 2.7 1.4 1.5-.1 2.1-1.6 3-2.1 1.1-.6 2.6.3 4.2-.8.2 2.2.1 4.2 1.7 5.9.9 1 1.9 1.1 2.7 1.8.7.6 1.3 2.6 2.4 3.3 1.2 5 1.6 12.4.5 16.7-.1.4-.2.9-.3 1.4-.6-.2-.3.3-2.8-.7-1.6-.6-2.1-.4-3.7 0-2 .5-2.4.3-3.4-.5-.5-.3-1-.7-1.6-.9-2.1-.5-3.9.9-5.5 1.6.1-.1.1-.3.2-.4.6-1.1 1.8-1.9 2.7-3 1.4-1.5 1.9-3.2 1.4-4.6-.3-.8-.7-1.2-.9-1.8-.8-1.8 1.1-4.6 0-7.1 6.9 7.8 7.4 8.2 7.9 9.4.3.7.5 1.6 1.1 2.4.3.3.7.4 1.1.1.3-.3.4-.7.1-1.1-.4-.5-.6-1.3-.9-2-.7-1.6-1.4-2.2-9.8-11.6-.4-.4-1.1-.3-1.3.2-1.4 3.6-3 7.7-6 10.6-1.2 1.1-2.6 2.1-3.7 3.5-1.1 1.5-1.4 2.7-2.3 4-.9.3-1.6.6-2.2.7-.7 0-2-.9-3.2-.3-.4.2-.6.8-.2 1.2 1.1.9 2.7 1.3 4.2 1.1 1.2-.2 2.2-.7 3.4-.8 3-.2 5.8 2.7 8.7 1.8 1.8-.5 3.5-2.7 5.5-1.9.9.4 1.5 1.4 2.5 1.8 1.3.5 2.8-.4 4.2-.6 1.1-.1 2.2.2 3.3.6-.7.4-1.4.9-1.6 1.7-.3 1.5 1.2 2.4 1.2 3 0 1.7-4.1 2.3-5.9 2.2-3.2-.3-9.5-1.1-10.1 2.1-.2.8.1 1.4.3 1.8.3.5.3.5.1.8-.5.7-2.2.9-3.2 1.1-2.4.3-4.6.1-7.5-.1-1.6-.1-3.3-.2-4.7-.6-.4-.1-.8.1-.9.5s.1.8.5.9c1.9.6 4.2.6 6.8.7 1.1.1 2.2.1 3.3.1 3.8 0 8.8-.9 7-4.2-.2-.3-.2-.5-.2-.6.4-2 8.2-.9 8.5-.9 1.4.1 4.9-.1 6.6-1.7.6-.6.9-1.2.9-2 0-1.3-1.4-2.2-1.3-2.7.1-.3 1.2-.9 1.9-1.4.8.3 1.5.5 2.3.6 2.7.8 6.3.5 8.9-.2-.1 1.1-.6 1.5-1.2 1.9-.7.6-1.6 1.3-1.6 2.5s1.1 1.8 1.2 2.5c.2.8-.1 1.7-.8 2.4-1.8 1.7-4.6 2-7.3 2.1-3.3.1-4 .6-5.3 2.1-.4.5-.8.9-1.3 1.2-2.6 1.5-6.2 1.5-9.2 1.5-.4 0-.8.3-.8.8s.3.8.8.8c3.1 0 7.7.1 10.4-2 3.1-2 3.1-2.6 6.7-2.9 2-.1 4.9 0 7-1.8 1.3-1.2 2-3.2 1.2-4.8-.2-.4-.5-.7-.6-1.2-.2-1 .8-1.8 1.5-2.5 1-.9 1-1.8 1.1-2.8 2-.5 4.1 0 5.9-1.3 1.2-.8 2-2.1 3.2-2.7 2.2-1 5 .2 7.1-1 .3-.2.6-.4.8-.8.1-.2.1-.4 0-.6.1-.3 0-.6-.2-.8-.3-.3-.8-.2-1.1.1-.1.1-.3.2-.5.3-.6-2.7-1.3-3.2-2.9-4.2-2.3-1.4-2.4-1.9-1.9-4.2.6-2.8.3-3.6-2.7-5.1-1.4-.7-2.2-1.1-2.3-2.4-.2-2 .1-4.1 0-6.3 1.2 2.7 2.2 2.4 2.8 3.3.2.3.3.6.5 1 .6 1.5 1 1.9 1.8 2.4.6.3.6.4.9.9.9 1.7 2 1.7 2.7 2.6.6.8 1.8-.1 1.2-.9-.4-.5-.9-.9-1.4-1.2-.9-.6-1-.8-1.2-1.2-.4-.7-.6-1-1.4-1.5-.6-.3-.7-.5-1.2-1.7s-.8-1.6-1.7-2.3c-.2-.1-.4-.3-.6-.5-1.1-1.1-1.3-3-2.5-4.4-.3-.4-.8-.4-1.1 0-.5.5-.8 1-1 1.6-.6 1.1-.8 1.3-1.4 1.7s-1.3.8-1.4 1.9c-.1.8.1 1-.1 1.4-.3.7-1.5 1.3-2.5 4.2-1.4-.6-3.3-.4-4.4-.7-1.8-.5-4.3-.5-6.7 0 0 0-.1 0-.1.1-1.1-1.6-1-2.3-2.6-3.3l7.5-9.6c.7 1.2 2.4 1.6 4.3 0 1.6-1.4 1.8-1.6 4.1-1.1.3.1.6.1.9.2 1.4.3 2.9 0 3.7-1 3 2.8 3.6 1.6 5 5.1.7 1.7.9 2.1 2.4 3.5 1.1 1 1 1 2 2.8 1.7 2.9 2.4 4 3 4.3.4.2.8 0 1-.4s0-.8-.3-1c-.7-.5-3.1-5.1-3.6-5.7-.4-.4-.7-.8-1.1-1.1-1.2-1.2-1.4-1.5-2-3-1.9-4.7-3.4-2.7-7.1-7.6-5-6.6-6.8-3.7-9.3-1.2-1.5 1.5-2.8 3.5-4 5.1l-7.7 9.9c-2.6-1.9-.5-6.6-3-8.3-.6-.4-1.3-.6-1.8-.7-1.5-.3-1.8-.4-3.5-4-.3-.1-2.3-3.9-2.4-4-.3-.6-1.1-.5-1.4.1-.2.4-1.9 2.8-2.1 3.1-1.7 2.3-1.3 2.6-3.4 5.2-.3.4-.6.7-.8 1.1-1.2 1.7-1.5 3.6-2.6 5-1.1 1.6-3.3 2.7-4.8 4.3-1.1 1.2-1.6 2.3-2.2 3.5-1.3 3-1.4 2.2-2.4 4.1zm10.1 9.7c2.2-2.8 5.2-3 8.9-11.9 1 1.9-1 4.7.1 7.2.2.5.7 1.2.9 1.7.4 1.3-.7 2.7-1.1 3.1-.9 1-2.1 1.9-2.9 3.3-.3.4-.4 1-.5 1.5-2.2-.1-4.3-1.7-6.9-1.9.5-1.3.8-2.2 1.5-3zm38.5-16.8c1.5-1.6.9-2.2 1-2.9.1-.8 1.2-.7 2.2-2.2.2 2.1-.1 4.6.1 6.8s1.8 2.9 3.1 3.6c2.4 1.1 2.4 1.4 1.9 3.4-.6 3-.3 4 2.6 5.8.3.2.5.3.8.5.9.6 1.2 1.6 1.4 2.7-3.4.2-4.3-.7-7.1 1.7-.3.3-.6.6-1 .8-3.1 2.2-4.9 1.1-6.6 1.6v-6c0-6.4 1.1-10-.2-12.3.2-1 .9-2.5 1.8-3.5zm-7.9 3.3c1.3.4 3.7.1 4.5.8 1.4 1.4.2 5.3.2 11.8 0 7-.1 6.7.1 7-2.9.9-7.6 1-10-.5.1-1.1.6-2.3.7-3.6.6-4.9.2-10.7-.9-15.6 2-.3 4-.3 5.4.1zm3.1-20.1c1.7-1.9 2.7-3.2 6.4 1.8.5.6.6.7.9 1-.3.7-1.4.8-2.4.7-.3 0-.5-.1-.8-.2-2.6-.6-3.5-.3-5.1 1.1-.2.1-1.1 1.1-1.9 1-.4 0-.6-.4-.5-.6s.1-.4 0-.6c2.2-3.1 2.1-2.8 3.4-4.2zm-26.4 1.6c.7-1 1.2-1.7 1.6-2.2 1.3 2.4 1.6 2.9 1.6 2.9.6 1.2 1.3 2.7 2.2 3.7 1.3 1.3 3 .9 3.8 1.8-.1.4-.8.7-1.4.7-.2 0-.4 0-.6 0-1.9 0-2.5.2-3.6 1.5-1 1.1-1.3 1.2-2.7-.2-1.1-1.1-2.3-1.4-3.2-.9-.6.3-1 1.1-1.2 1.1-.1 0-.2-.3-.3-.6-.1-.5 0-1-.3-1.6.2-.3.5-.6.7-.9 2.4-3 1.6-2.8 3.4-5.3z"/><path d="m44.1 34.1c.4 0 .8-.3.8-.8v-1.1c0-.4-.3-.8-.8-.8s-.8.3-.8.8v1.1c.1.5.4.8.8.8z"/><path d="m41.6 42.4c0 .4.3.8.7.8h.1c.4 0 .7-.3.7-.7.1-.8-.1-1.5-.3-2.1-.1 0-1.6.4-1.5.4.2.5.4 1.1.3 1.6z"/><path d="m13.1 64c.4 0 .7-.3.7-.7s-.3-.8-.7-.8c-1.7-.2-3.1 0-4.7-.4-.4-.1-.8.2-.9.6s.2.8.6.9c1.3.2 4.9.4 5 .4z"/><path d="m23.5 59c.5-.5 1.4-.4 2.4-.6s2-.7 2.8-.7c.4 0 .7-.4.7-.8s-.4-.7-.8-.7c-1.4.1-1.6.7-3.5.8-.8.1-1.8.1-2.6.9-.5.5-.1 1.3.5 1.3.2 0 .4-.1.5-.2z"/><path d="m39.8 55.2c-.1.3-.5.5-.6.4-.4-.2-.8-.1-1 .3-.5.9.7 1.6 1.9 1 1.3-.6 1.6-2.1.6-2.3-.5-.1-.9.2-.9.6z"/><path d="m39.3 49.1c-.7.2-1.3.6-1.7 1.2-.3.5 0 1.2.6 1.2.7 0 .5-.6 1.5-.9.4-.1.6-.5.5-.9-.1-.5-.5-.7-.9-.6z"/><path d="m43.4 49.2c-.1-.9-1.4-.9-1.5 0-.5.5-.2 1.3.5 1.3.4.1 1.1-.5 1-1.3z"/><path d="m63.2 60.6c.6-.3 1.2-.6 1.8-.9h.1c.3-.2.4-.7.2-1-.1-.1-.2-.2-.3-.3-.3-.3-1.1-1.3-1.7-2.1.3.1.6.1.8-.1.3-.2.4-.6.2-.9-.6-1.3-1.2-2.6-2-3.8.1 0 .2-.1.3-.1.3-.2.4-.6.2-.9-1-2.4-2.3-3.6-3.3-4.9-.3-.4-.9-.5-1.2-.1-.5.7-1.8 2.3-3.7 5.2-.2.3-.2.6 0 .9.5.6 1.2 0 1.5 0-2.3 3.2-1.7 2.5-2.9 4.4-.4.6.2 1.4.9 1.1.2-.1.4-.1.6-.2-1.1 1.4-1.6 2-2.2 2.8-.3.4-.1 1 .4 1.1.9.3 3.4.8 5 .8v1.1c-.1.4.2.8.6.9s.8-.2.9-.6c.1-.6.1-1 .1-1.4 1.2-.2 2.5-.5 3.7-1zm-8.1-1.8c1.9-2.3 2.1-2.7 2.2-2.8.4-.2.6-.6.4-1s-.6-.6-1-.4c-.3.1-.7.3-1.2.4.3-.4 1-1.5 1.4-2.1.7-.9 1.8-2.4 1-3.2-.3-.2-.5-.2-.8-.2.6-.8 1.1-1.6 1.7-2.4 1 1.3 1.1 1.4 1.6 2.2 0 0 0 0-.1 0-.7-.3-1.3.6-.8 1.2 1 1.1 1.8 2.3 2.5 3.6-.2 0-.2 0-.4 0-.1 0-.1 0-.2 0-.2-.1-.5 0-.7.2-.3.3-.3.7-.1 1.1.1.1.4.5.7.9.9 1.3 1.6 2.1 2 2.6-3.1 1.5-5.8 1.4-9 .7z"/><path d="m30.9 6.8c-.4-.1-.8.2-.9.6s.2.8.6.9c.5.1 1 .4 1.3.8.4.6 1.4.3 1.4-.5 0-.2.2-.5.4-.5.4-.1.6-.6.5-1s-.6-.6-1-.5-.7.4-.9.7c-.5-.2-1-.4-1.4-.5z"/><path d="m4.4 11 1 .7c.2.2.6.2.8 0 .3-.1.4-.4.4-.7 0-.2.1-.5.2-.6.3-.3.3-.8 0-1.1-.3-.2-.8-.2-1.1.1-.1.1-.3.3-.4.5v-.1c-.3-.2-.8-.2-1 .2-.3.3-.3.8.1 1z"/><path d="m40 36.3c.4 0 .8-.3.8-.8v-1.8c0-.4-.3-.8-.8-.8s-.8.3-.8.8v1.8c0 .5.4.8.8.8z"/></g></svg>