<svg width="661" height="510" viewBox="0 0 661 510" fill="none" xmlns="http://www.w3.org/2000/svg">
<circle cx="111.823" cy="252.273" r="110.929" stroke="#ACC1F7" stroke-width="1.78917"/>
<circle cx="111.376" cy="251.825" r="80.0655" fill="white"/>
<path d="M68.638 253.287H64.7068V251.022H68.638C69.281 251.022 69.8017 250.918 70.2001 250.708C70.6054 250.491 70.9025 250.198 71.0912 249.827C71.2799 249.45 71.3742 249.02 71.3742 248.538C71.3742 248.07 71.2799 247.633 71.0912 247.227C70.9025 246.822 70.6054 246.494 70.2001 246.242C69.8017 245.99 69.281 245.865 68.638 245.865H65.6503V258.854H62.7673V243.59H68.638C69.8262 243.59 70.8396 243.803 71.6782 244.229C72.5239 244.648 73.1669 245.232 73.6072 245.98C74.0545 246.721 74.2781 247.566 74.2781 248.517C74.2781 249.502 74.0545 250.351 73.6072 251.064C73.1669 251.777 72.5239 252.326 71.6782 252.71C70.8396 253.095 69.8262 253.287 68.638 253.287ZM77.6161 243.59H83.1618C84.322 243.59 85.3179 243.764 86.1496 244.114C86.9813 244.463 87.6208 244.98 88.068 245.665C88.5153 246.35 88.739 247.192 88.739 248.192C88.739 248.982 88.5992 249.667 88.3197 250.247C88.0401 250.827 87.6452 251.312 87.135 251.704C86.6318 252.095 86.0378 252.403 85.3528 252.626L84.4513 253.088H79.5555L79.5345 250.813H83.1932C83.7873 250.813 84.28 250.708 84.6714 250.498C85.0628 250.289 85.3563 249.999 85.552 249.628C85.7547 249.258 85.856 248.835 85.856 248.36C85.856 247.849 85.7582 247.409 85.5625 247.039C85.3668 246.661 85.0698 246.371 84.6714 246.169C84.273 245.966 83.7698 245.865 83.1618 245.865H80.499V258.854H77.6161V243.59ZM86.2334 258.854L82.7005 252.018L85.7512 252.008L89.3261 258.707V258.854H86.2334ZM104.699 250.834V251.62C104.699 252.773 104.545 253.811 104.238 254.734C103.93 255.649 103.493 256.428 102.927 257.071C102.361 257.714 101.687 258.207 100.904 258.549C100.121 258.892 99.2511 259.063 98.2936 259.063C97.3501 259.063 96.4835 258.892 95.6937 258.549C94.9109 258.207 94.233 257.714 93.6599 257.071C93.0868 256.428 92.643 255.649 92.3285 254.734C92.014 253.811 91.8568 252.773 91.8568 251.62V250.834C91.8568 249.674 92.014 248.636 92.3285 247.72C92.643 246.805 93.0833 246.025 93.6494 245.382C94.2155 244.732 94.89 244.236 95.6727 243.894C96.4625 243.551 97.3291 243.38 98.2726 243.38C99.2301 243.38 100.1 243.551 100.883 243.894C101.666 244.236 102.34 244.732 102.906 245.382C103.479 246.025 103.92 246.805 104.227 247.72C104.542 248.636 104.699 249.674 104.699 250.834ZM101.785 251.62V250.813C101.785 249.981 101.708 249.251 101.554 248.622C101.4 247.986 101.173 247.451 100.873 247.018C100.572 246.584 100.202 246.259 99.7613 246.043C99.321 245.819 98.8248 245.707 98.2726 245.707C97.7135 245.707 97.2173 245.819 96.784 246.043C96.3577 246.259 95.9942 246.584 95.6937 247.018C95.3932 247.451 95.1625 247.986 95.0018 248.622C94.848 249.251 94.7712 249.981 94.7712 250.813V251.62C94.7712 252.445 94.848 253.175 95.0018 253.811C95.1625 254.447 95.3932 254.985 95.6937 255.425C96.0012 255.859 96.3716 256.187 96.8049 256.411C97.2383 256.635 97.7345 256.746 98.2936 256.746C98.8527 256.746 99.3489 256.635 99.7822 256.411C100.216 256.187 100.579 255.859 100.873 255.425C101.173 254.985 101.4 254.447 101.554 253.811C101.708 253.175 101.785 252.445 101.785 251.62ZM117.147 253.832H120.03C119.953 254.852 119.67 255.757 119.181 256.547C118.692 257.33 118.01 257.945 117.137 258.392C116.263 258.84 115.204 259.063 113.96 259.063C113.003 259.063 112.139 258.895 111.371 258.56C110.609 258.218 109.955 257.732 109.41 257.103C108.872 256.467 108.46 255.705 108.173 254.817C107.887 253.923 107.743 252.92 107.743 251.809V250.645C107.743 249.534 107.89 248.531 108.184 247.636C108.477 246.742 108.897 245.98 109.442 245.351C109.994 244.715 110.654 244.226 111.423 243.883C112.199 243.541 113.065 243.369 114.023 243.369C115.267 243.369 116.319 243.6 117.178 244.061C118.038 244.516 118.706 245.141 119.181 245.938C119.656 246.735 119.943 247.65 120.04 248.685H117.157C117.102 248.042 116.962 247.496 116.738 247.049C116.522 246.602 116.193 246.263 115.753 246.032C115.319 245.795 114.743 245.676 114.023 245.676C113.464 245.676 112.971 245.781 112.545 245.99C112.125 246.2 111.776 246.515 111.496 246.934C111.217 247.346 111.007 247.863 110.867 248.485C110.728 249.1 110.658 249.813 110.658 250.624V251.809C110.658 252.584 110.721 253.28 110.846 253.895C110.972 254.51 111.168 255.031 111.434 255.457C111.699 255.883 112.042 256.208 112.461 256.432C112.88 256.655 113.38 256.767 113.96 256.767C114.666 256.767 115.239 256.655 115.679 256.432C116.127 256.208 116.466 255.88 116.696 255.446C116.934 255.013 117.084 254.475 117.147 253.832ZM133.453 256.589V258.854H125.339V256.589H133.453ZM126.219 243.59V258.854H123.336V243.59H126.219ZM132.394 249.89V252.102H125.339V249.89H132.394ZM133.422 243.59V245.865H125.339V243.59H133.422ZM144.517 254.891C144.517 254.597 144.472 254.335 144.381 254.105C144.297 253.867 144.14 253.654 143.909 253.465C143.685 253.269 143.367 253.081 142.955 252.899C142.55 252.71 142.026 252.515 141.383 252.312C140.67 252.088 140.006 251.837 139.391 251.557C138.776 251.277 138.234 250.952 137.766 250.582C137.305 250.212 136.945 249.785 136.686 249.303C136.427 248.814 136.298 248.248 136.298 247.605C136.298 246.976 136.431 246.403 136.697 245.886C136.969 245.368 137.353 244.925 137.85 244.554C138.346 244.177 138.93 243.887 139.6 243.684C140.278 243.481 141.026 243.38 141.844 243.38C142.976 243.38 143.955 243.586 144.779 243.998C145.611 244.411 146.254 244.97 146.708 245.676C147.162 246.382 147.39 247.175 147.39 248.056H144.517C144.517 247.58 144.416 247.161 144.213 246.798C144.017 246.434 143.717 246.148 143.312 245.938C142.913 245.728 142.41 245.623 141.802 245.623C141.215 245.623 140.726 245.711 140.334 245.886C139.95 246.06 139.66 246.298 139.464 246.598C139.275 246.899 139.181 247.234 139.181 247.605C139.181 247.884 139.247 248.136 139.38 248.36C139.513 248.576 139.712 248.782 139.978 248.978C140.243 249.167 140.572 249.345 140.963 249.513C141.362 249.674 141.823 249.834 142.347 249.995C143.186 250.247 143.92 250.526 144.549 250.834C145.185 251.141 145.712 251.491 146.132 251.882C146.558 252.273 146.876 252.714 147.086 253.203C147.302 253.692 147.411 254.248 147.411 254.87C147.411 255.527 147.281 256.114 147.023 256.631C146.764 257.148 146.394 257.589 145.911 257.952C145.429 258.315 144.849 258.591 144.171 258.78C143.5 258.969 142.749 259.063 141.917 259.063C141.176 259.063 140.443 258.965 139.716 258.77C138.996 258.567 138.342 258.266 137.755 257.868C137.168 257.463 136.7 256.953 136.351 256.337C136.001 255.715 135.826 254.989 135.826 254.157H138.72C138.72 254.639 138.797 255.052 138.95 255.394C139.111 255.729 139.335 256.006 139.621 256.222C139.915 256.432 140.257 256.586 140.649 256.683C141.04 256.781 141.463 256.83 141.917 256.83C142.504 256.83 142.987 256.75 143.364 256.589C143.748 256.421 144.035 256.191 144.224 255.897C144.419 255.604 144.517 255.268 144.517 254.891ZM158.695 254.891C158.695 254.597 158.65 254.335 158.559 254.105C158.475 253.867 158.318 253.654 158.087 253.465C157.863 253.269 157.545 253.081 157.133 252.899C156.728 252.71 156.203 252.515 155.56 252.312C154.848 252.088 154.184 251.837 153.569 251.557C152.954 251.277 152.412 250.952 151.944 250.582C151.482 250.212 151.122 249.785 150.864 249.303C150.605 248.814 150.476 248.248 150.476 247.605C150.476 246.976 150.609 246.403 150.874 245.886C151.147 245.368 151.531 244.925 152.028 244.554C152.524 244.177 153.107 243.887 153.778 243.684C154.456 243.481 155.204 243.38 156.022 243.38C157.154 243.38 158.132 243.586 158.957 243.998C159.789 244.411 160.432 244.97 160.886 245.676C161.34 246.382 161.567 247.175 161.567 248.056H158.695C158.695 247.58 158.594 247.161 158.391 246.798C158.195 246.434 157.895 246.148 157.489 245.938C157.091 245.728 156.588 245.623 155.98 245.623C155.393 245.623 154.903 245.711 154.512 245.886C154.128 246.06 153.838 246.298 153.642 246.598C153.453 246.899 153.359 247.234 153.359 247.605C153.359 247.884 153.425 248.136 153.558 248.36C153.691 248.576 153.89 248.782 154.156 248.978C154.421 249.167 154.75 249.345 155.141 249.513C155.539 249.674 156.001 249.834 156.525 249.995C157.364 250.247 158.097 250.526 158.726 250.834C159.362 251.141 159.89 251.491 160.309 251.882C160.736 252.273 161.054 252.714 161.263 253.203C161.48 253.692 161.588 254.248 161.588 254.87C161.588 255.527 161.459 256.114 161.201 256.631C160.942 257.148 160.572 257.589 160.089 257.952C159.607 258.315 159.027 258.591 158.349 258.78C157.678 258.969 156.927 259.063 156.095 259.063C155.354 259.063 154.62 258.965 153.894 258.77C153.174 258.567 152.52 258.266 151.933 257.868C151.346 257.463 150.878 256.953 150.528 256.337C150.179 255.715 150.004 254.989 150.004 254.157H152.898C152.898 254.639 152.975 255.052 153.128 255.394C153.289 255.729 153.513 256.006 153.799 256.222C154.093 256.432 154.435 256.586 154.827 256.683C155.218 256.781 155.641 256.83 156.095 256.83C156.682 256.83 157.164 256.75 157.542 256.589C157.926 256.421 158.213 256.191 158.401 255.897C158.597 255.604 158.695 255.268 158.695 254.891Z" fill="white"/>
<path d="M191.442 248.247C191.442 227.012 183.006 206.647 167.991 191.632C152.976 176.617 132.611 168.182 111.376 168.182C90.1414 168.182 69.7764 176.617 54.7612 191.632C39.746 206.647 31.3106 227.012 31.3105 248.247" stroke="#ACF7BC" stroke-width="7.15669"/>
<path d="M31.3105 255.404C31.3105 276.639 39.746 297.004 54.7612 312.019C69.7764 327.034 90.1414 335.47 111.376 335.47C132.611 335.47 152.976 327.034 167.991 312.019C183.006 297.004 191.442 276.639 191.442 255.404" stroke="#ACF7BC" stroke-width="7.15669"/>
<path d="M68.638 253.287H64.7068V251.022H68.638C69.281 251.022 69.8017 250.918 70.2001 250.708C70.6054 250.491 70.9025 250.198 71.0912 249.827C71.2799 249.45 71.3742 249.02 71.3742 248.538C71.3742 248.07 71.2799 247.633 71.0912 247.227C70.9025 246.822 70.6054 246.494 70.2001 246.242C69.8017 245.99 69.281 245.865 68.638 245.865H65.6503V258.854H62.7673V243.59H68.638C69.8262 243.59 70.8396 243.803 71.6782 244.229C72.5239 244.648 73.1669 245.232 73.6072 245.98C74.0545 246.721 74.2781 247.566 74.2781 248.517C74.2781 249.502 74.0545 250.351 73.6072 251.064C73.1669 251.777 72.5239 252.326 71.6782 252.71C70.8396 253.095 69.8262 253.287 68.638 253.287ZM77.6161 243.59H83.1618C84.322 243.59 85.3179 243.764 86.1496 244.114C86.9813 244.463 87.6208 244.98 88.068 245.665C88.5153 246.35 88.739 247.192 88.739 248.192C88.739 248.982 88.5992 249.667 88.3197 250.247C88.0401 250.827 87.6452 251.312 87.135 251.704C86.6318 252.095 86.0378 252.403 85.3528 252.626L84.4513 253.088H79.5555L79.5345 250.813H83.1932C83.7873 250.813 84.28 250.708 84.6714 250.498C85.0628 250.289 85.3563 249.999 85.552 249.628C85.7547 249.258 85.856 248.835 85.856 248.36C85.856 247.849 85.7582 247.409 85.5625 247.039C85.3668 246.661 85.0698 246.371 84.6714 246.169C84.273 245.966 83.7698 245.865 83.1618 245.865H80.499V258.854H77.6161V243.59ZM86.2334 258.854L82.7005 252.018L85.7512 252.008L89.3261 258.707V258.854H86.2334ZM104.699 250.834V251.62C104.699 252.773 104.545 253.811 104.238 254.734C103.93 255.649 103.493 256.428 102.927 257.071C102.361 257.714 101.687 258.207 100.904 258.549C100.121 258.892 99.2511 259.063 98.2936 259.063C97.3501 259.063 96.4835 258.892 95.6937 258.549C94.9109 258.207 94.233 257.714 93.6599 257.071C93.0868 256.428 92.643 255.649 92.3285 254.734C92.014 253.811 91.8568 252.773 91.8568 251.62V250.834C91.8568 249.674 92.014 248.636 92.3285 247.72C92.643 246.805 93.0833 246.025 93.6494 245.382C94.2155 244.732 94.89 244.236 95.6727 243.894C96.4625 243.551 97.3291 243.38 98.2726 243.38C99.2301 243.38 100.1 243.551 100.883 243.894C101.666 244.236 102.34 244.732 102.906 245.382C103.479 246.025 103.92 246.805 104.227 247.72C104.542 248.636 104.699 249.674 104.699 250.834ZM101.785 251.62V250.813C101.785 249.981 101.708 249.251 101.554 248.622C101.4 247.986 101.173 247.451 100.873 247.018C100.572 246.584 100.202 246.259 99.7613 246.043C99.321 245.819 98.8248 245.707 98.2726 245.707C97.7135 245.707 97.2173 245.819 96.784 246.043C96.3577 246.259 95.9942 246.584 95.6937 247.018C95.3932 247.451 95.1625 247.986 95.0018 248.622C94.848 249.251 94.7712 249.981 94.7712 250.813V251.62C94.7712 252.445 94.848 253.175 95.0018 253.811C95.1625 254.447 95.3932 254.985 95.6937 255.425C96.0012 255.859 96.3716 256.187 96.8049 256.411C97.2383 256.635 97.7345 256.746 98.2936 256.746C98.8527 256.746 99.3489 256.635 99.7822 256.411C100.216 256.187 100.579 255.859 100.873 255.425C101.173 254.985 101.4 254.447 101.554 253.811C101.708 253.175 101.785 252.445 101.785 251.62ZM117.147 253.832H120.03C119.953 254.852 119.67 255.757 119.181 256.547C118.692 257.33 118.01 257.945 117.137 258.392C116.263 258.84 115.204 259.063 113.96 259.063C113.003 259.063 112.139 258.895 111.371 258.56C110.609 258.218 109.955 257.732 109.41 257.103C108.872 256.467 108.46 255.705 108.173 254.817C107.887 253.923 107.743 252.92 107.743 251.809V250.645C107.743 249.534 107.89 248.531 108.184 247.636C108.477 246.742 108.897 245.98 109.442 245.351C109.994 244.715 110.654 244.226 111.423 243.883C112.199 243.541 113.065 243.369 114.023 243.369C115.267 243.369 116.319 243.6 117.178 244.061C118.038 244.516 118.706 245.141 119.181 245.938C119.656 246.735 119.943 247.65 120.04 248.685H117.157C117.102 248.042 116.962 247.496 116.738 247.049C116.522 246.602 116.193 246.263 115.753 246.032C115.319 245.795 114.743 245.676 114.023 245.676C113.464 245.676 112.971 245.781 112.545 245.99C112.125 246.2 111.776 246.515 111.496 246.934C111.217 247.346 111.007 247.863 110.867 248.485C110.728 249.1 110.658 249.813 110.658 250.624V251.809C110.658 252.584 110.721 253.28 110.846 253.895C110.972 254.51 111.168 255.031 111.434 255.457C111.699 255.883 112.042 256.208 112.461 256.432C112.88 256.655 113.38 256.767 113.96 256.767C114.666 256.767 115.239 256.655 115.679 256.432C116.127 256.208 116.466 255.88 116.696 255.446C116.934 255.013 117.084 254.475 117.147 253.832ZM133.453 256.589V258.854H125.339V256.589H133.453ZM126.219 243.59V258.854H123.336V243.59H126.219ZM132.394 249.89V252.102H125.339V249.89H132.394ZM133.422 243.59V245.865H125.339V243.59H133.422ZM144.517 254.891C144.517 254.597 144.472 254.335 144.381 254.105C144.297 253.867 144.14 253.654 143.909 253.465C143.685 253.269 143.367 253.081 142.955 252.899C142.55 252.71 142.026 252.515 141.383 252.312C140.67 252.088 140.006 251.837 139.391 251.557C138.776 251.277 138.234 250.952 137.766 250.582C137.305 250.212 136.945 249.785 136.686 249.303C136.427 248.814 136.298 248.248 136.298 247.605C136.298 246.976 136.431 246.403 136.697 245.886C136.969 245.368 137.353 244.925 137.85 244.554C138.346 244.177 138.93 243.887 139.6 243.684C140.278 243.481 141.026 243.38 141.844 243.38C142.976 243.38 143.955 243.586 144.779 243.998C145.611 244.411 146.254 244.97 146.708 245.676C147.162 246.382 147.39 247.175 147.39 248.056H144.517C144.517 247.58 144.416 247.161 144.213 246.798C144.017 246.434 143.717 246.148 143.312 245.938C142.913 245.728 142.41 245.623 141.802 245.623C141.215 245.623 140.726 245.711 140.334 245.886C139.95 246.06 139.66 246.298 139.464 246.598C139.275 246.899 139.181 247.234 139.181 247.605C139.181 247.884 139.247 248.136 139.38 248.36C139.513 248.576 139.712 248.782 139.978 248.978C140.243 249.167 140.572 249.345 140.963 249.513C141.362 249.674 141.823 249.834 142.347 249.995C143.186 250.247 143.92 250.526 144.549 250.834C145.185 251.141 145.712 251.491 146.132 251.882C146.558 252.273 146.876 252.714 147.086 253.203C147.302 253.692 147.411 254.248 147.411 254.87C147.411 255.527 147.281 256.114 147.023 256.631C146.764 257.148 146.394 257.589 145.911 257.952C145.429 258.315 144.849 258.591 144.171 258.78C143.5 258.969 142.749 259.063 141.917 259.063C141.176 259.063 140.443 258.965 139.716 258.77C138.996 258.567 138.342 258.266 137.755 257.868C137.168 257.463 136.7 256.953 136.351 256.337C136.001 255.715 135.826 254.989 135.826 254.157H138.72C138.72 254.639 138.797 255.052 138.95 255.394C139.111 255.729 139.335 256.006 139.621 256.222C139.915 256.432 140.257 256.586 140.649 256.683C141.04 256.781 141.463 256.83 141.917 256.83C142.504 256.83 142.987 256.75 143.364 256.589C143.748 256.421 144.035 256.191 144.224 255.897C144.419 255.604 144.517 255.268 144.517 254.891ZM158.695 254.891C158.695 254.597 158.65 254.335 158.559 254.105C158.475 253.867 158.318 253.654 158.087 253.465C157.863 253.269 157.545 253.081 157.133 252.899C156.728 252.71 156.203 252.515 155.56 252.312C154.848 252.088 154.184 251.837 153.569 251.557C152.954 251.277 152.412 250.952 151.944 250.582C151.482 250.212 151.122 249.785 150.864 249.303C150.605 248.814 150.476 248.248 150.476 247.605C150.476 246.976 150.609 246.403 150.874 245.886C151.147 245.368 151.531 244.925 152.028 244.554C152.524 244.177 153.107 243.887 153.778 243.684C154.456 243.481 155.204 243.38 156.022 243.38C157.154 243.38 158.132 243.586 158.957 243.998C159.789 244.411 160.432 244.97 160.886 245.676C161.34 246.382 161.567 247.175 161.567 248.056H158.695C158.695 247.58 158.594 247.161 158.391 246.798C158.195 246.434 157.895 246.148 157.489 245.938C157.091 245.728 156.588 245.623 155.98 245.623C155.393 245.623 154.903 245.711 154.512 245.886C154.128 246.06 153.838 246.298 153.642 246.598C153.453 246.899 153.359 247.234 153.359 247.605C153.359 247.884 153.425 248.136 153.558 248.36C153.691 248.576 153.89 248.782 154.156 248.978C154.421 249.167 154.75 249.345 155.141 249.513C155.539 249.674 156.001 249.834 156.525 249.995C157.364 250.247 158.097 250.526 158.726 250.834C159.362 251.141 159.89 251.491 160.309 251.882C160.736 252.273 161.054 252.714 161.263 253.203C161.48 253.692 161.588 254.248 161.588 254.87C161.588 255.527 161.459 256.114 161.201 256.631C160.942 257.148 160.572 257.589 160.089 257.952C159.607 258.315 159.027 258.591 158.349 258.78C157.678 258.969 156.927 259.063 156.095 259.063C155.354 259.063 154.62 258.965 153.894 258.77C153.174 258.567 152.52 258.266 151.933 257.868C151.346 257.463 150.878 256.953 150.528 256.337C150.179 255.715 150.004 254.989 150.004 254.157H152.898C152.898 254.639 152.975 255.052 153.128 255.394C153.289 255.729 153.513 256.006 153.799 256.222C154.093 256.432 154.435 256.586 154.827 256.683C155.218 256.781 155.641 256.83 156.095 256.83C156.682 256.83 157.164 256.75 157.542 256.589C157.926 256.421 158.213 256.191 158.401 255.897C158.597 255.604 158.695 255.268 158.695 254.891Z" fill="black"/>
<g filter="url(#filter0_d_1163_9357)">
<ellipse cx="111.376" cy="252.273" rx="80.0655" ry="84.0912" stroke="#14539A" stroke-width="1.78917" shape-rendering="crispEdges"/>
</g>
<g filter="url(#filter1_d_1163_9357)">
<rect x="271.06" y="25.9424" width="280.9" height="86.7749" rx="43.3875" fill="#ACF7BC"/>
</g>
<path d="M344.07 72.0204H346.953C346.876 73.0408 346.593 73.9459 346.104 74.7356C345.615 75.5184 344.933 76.1334 344.06 76.5807C343.186 77.028 342.127 77.2517 340.883 77.2517C339.926 77.2517 339.062 77.0839 338.294 76.7485C337.532 76.406 336.878 75.9203 336.333 75.2913C335.795 74.6553 335.383 73.8935 335.096 73.0059C334.81 72.1113 334.666 71.1084 334.666 69.9971V68.8335C334.666 67.7222 334.813 66.7193 335.107 65.8247C335.4 64.9301 335.82 64.1683 336.365 63.5393C336.917 62.9033 337.577 62.4141 338.346 62.0716C339.122 61.7292 339.988 61.558 340.946 61.558C342.19 61.558 343.242 61.7886 344.101 62.2499C344.961 62.7041 345.629 63.3297 346.104 64.1264C346.579 64.9231 346.866 65.8387 346.963 66.8731H344.08C344.025 66.2301 343.885 65.6849 343.661 65.2376C343.444 64.7903 343.116 64.4514 342.676 64.2207C342.242 63.9831 341.666 63.8643 340.946 63.8643C340.387 63.8643 339.894 63.9691 339.468 64.1788C339.048 64.3885 338.699 64.703 338.419 65.1223C338.14 65.5347 337.93 66.0519 337.79 66.6739C337.651 67.2889 337.581 68.0018 337.581 68.8125V69.9971C337.581 70.7729 337.644 71.4683 337.769 72.0833C337.895 72.6984 338.091 73.219 338.357 73.6454C338.622 74.0717 338.965 74.3967 339.384 74.6203C339.803 74.844 340.303 74.9558 340.883 74.9558C341.589 74.9558 342.162 74.844 342.602 74.6203C343.05 74.3967 343.389 74.0682 343.619 73.6349C343.857 73.2016 344.007 72.6634 344.07 72.0204ZM352.765 60.9394V77.042H349.987V60.9394H352.765ZM352.325 70.9616H351.507C351.507 70.1718 351.612 69.445 351.821 68.781C352.031 68.1171 352.328 67.5405 352.713 67.0513C353.097 66.5551 353.555 66.1707 354.086 65.8981C354.624 65.6255 355.218 65.4892 355.868 65.4892C356.427 65.4892 356.934 65.5696 357.388 65.7304C357.849 65.8841 358.244 66.1322 358.573 66.4747C358.901 66.8171 359.153 67.2644 359.328 67.8166C359.509 68.3617 359.6 69.0257 359.6 69.8084V77.042H356.812V69.7875C356.812 69.2633 356.735 68.8509 356.581 68.5504C356.427 68.2429 356.207 68.0227 355.92 67.8899C355.641 67.7572 355.295 67.6908 354.883 67.6908C354.435 67.6908 354.051 67.7781 353.729 67.9528C353.408 68.1206 353.142 68.3547 352.933 68.6552C352.73 68.9558 352.576 69.3017 352.471 69.6931C352.374 70.0845 352.325 70.5073 352.325 70.9616ZM366.052 65.6989V77.042H363.274V65.6989H366.052ZM363.085 62.7321C363.085 62.3197 363.225 61.9773 363.504 61.7047C363.791 61.4322 364.175 61.2959 364.657 61.2959C365.14 61.2959 365.521 61.4322 365.8 61.7047C366.087 61.9773 366.23 62.3197 366.23 62.7321C366.23 63.1375 366.087 63.4764 365.8 63.749C365.521 64.0216 365.14 64.1578 364.657 64.1578C364.175 64.1578 363.791 64.0216 363.504 63.749C363.225 63.4764 363.085 63.1375 363.085 62.7321ZM372.702 60.9394V77.042H369.924V60.9394H372.702ZM383.221 74.6308V60.9394H386.01V77.042H383.494L383.221 74.6308ZM375.935 71.5067V71.2866C375.935 70.42 376.033 69.6337 376.229 68.9278C376.432 68.2149 376.725 67.6034 377.11 67.0932C377.494 66.583 377.959 66.1881 378.504 65.9086C379.056 65.629 379.682 65.4892 380.38 65.4892C381.058 65.4892 381.649 65.6255 382.152 65.8981C382.662 66.1707 383.096 66.5586 383.452 67.0618C383.816 67.565 384.106 68.1625 384.322 68.8544C384.539 69.5393 384.696 70.2942 384.794 71.1188V71.7164C384.696 72.5201 384.539 73.2575 384.322 73.9284C384.106 74.5994 383.816 75.1864 383.452 75.6896C383.096 76.1858 382.662 76.5702 382.152 76.8428C381.642 77.1154 381.044 77.2517 380.359 77.2517C379.668 77.2517 379.046 77.1084 378.493 76.8218C377.948 76.5353 377.484 76.1334 377.099 75.6162C376.722 75.0991 376.432 74.491 376.229 73.7921C376.033 73.0932 375.935 72.3314 375.935 71.5067ZM378.714 71.2866V71.5067C378.714 71.996 378.756 72.4537 378.839 72.8801C378.923 73.3064 379.06 73.6838 379.248 74.0123C379.437 74.3338 379.678 74.5854 379.972 74.7671C380.272 74.9488 380.636 75.0397 381.062 75.0397C381.607 75.0397 382.054 74.9208 382.404 74.6832C382.76 74.4386 383.036 74.1066 383.232 73.6873C383.428 73.261 383.553 72.7822 383.609 72.2511V70.6052C383.581 70.1858 383.508 69.7979 383.389 69.4415C383.277 69.0851 383.117 68.7775 382.907 68.519C382.704 68.2604 382.453 68.0577 382.152 67.9109C381.852 67.7641 381.495 67.6908 381.083 67.6908C380.657 67.6908 380.293 67.7851 379.993 67.9738C379.692 68.1555 379.447 68.4106 379.259 68.7391C379.07 69.0676 378.93 69.4485 378.839 69.8818C378.756 70.3151 378.714 70.7834 378.714 71.2866ZM402.289 64.0949L397.938 77.042H394.887L400.59 61.7781H402.54L402.289 64.0949ZM405.926 77.042L401.555 64.0949L401.293 61.7781H403.253L408.988 77.042H405.926ZM405.727 71.3705V73.6454H397.54V71.3705H405.727ZM417.662 73.9389C417.662 73.7013 417.599 73.4881 417.473 73.2994C417.347 73.1107 417.11 72.9395 416.76 72.7857C416.418 72.625 415.914 72.4747 415.25 72.3349C414.663 72.2091 414.122 72.0519 413.626 71.8632C413.129 71.6745 412.703 71.4473 412.347 71.1817C411.99 70.9092 411.711 70.5912 411.508 70.2278C411.312 69.8573 411.214 69.431 411.214 68.9488C411.214 68.4805 411.316 68.0402 411.518 67.6279C411.721 67.2085 412.015 66.8416 412.399 66.5271C412.783 66.2056 413.252 65.954 413.804 65.7723C414.356 65.5836 414.978 65.4892 415.67 65.4892C416.634 65.4892 417.462 65.6465 418.154 65.961C418.853 66.2755 419.388 66.7088 419.758 67.2609C420.129 67.8061 420.314 68.4211 420.314 69.106H417.546C417.546 68.8055 417.476 68.5329 417.337 68.2883C417.204 68.0437 416.998 67.848 416.718 67.7012C416.439 67.5475 416.086 67.4706 415.659 67.4706C415.275 67.4706 414.95 67.5335 414.684 67.6593C414.426 67.7851 414.23 67.9494 414.097 68.152C413.964 68.3547 413.898 68.5784 413.898 68.823C413.898 69.0047 413.933 69.1689 414.003 69.3157C414.08 69.4555 414.202 69.5848 414.37 69.7036C414.538 69.8224 414.765 69.9307 415.051 70.0286C415.345 70.1264 415.705 70.2208 416.131 70.3116C416.977 70.4794 417.714 70.703 418.343 70.9826C418.979 71.2551 419.475 71.6186 419.832 72.0728C420.188 72.5271 420.366 73.1072 420.366 73.8131C420.366 74.3163 420.258 74.7776 420.041 75.1969C419.825 75.6093 419.51 75.9692 419.098 76.2767C418.686 76.5842 418.193 76.8253 417.62 77.0001C417.047 77.1678 416.4 77.2517 415.68 77.2517C414.639 77.2517 413.758 77.0665 413.038 76.696C412.319 76.3186 411.773 75.8434 411.403 75.2703C411.033 74.6902 410.847 74.0892 410.847 73.4671H413.5C413.521 73.9074 413.64 74.2604 413.856 74.526C414.073 74.7915 414.345 74.9837 414.674 75.1026C415.009 75.2144 415.362 75.2703 415.733 75.2703C416.152 75.2703 416.505 75.2144 416.792 75.1026C417.078 74.9837 417.295 74.8265 417.441 74.6308C417.588 74.4281 417.662 74.1975 417.662 73.9389ZM429.785 73.9389C429.785 73.7013 429.722 73.4881 429.596 73.2994C429.47 73.1107 429.233 72.9395 428.883 72.7857C428.541 72.625 428.037 72.4747 427.374 72.3349C426.786 72.2091 426.245 72.0519 425.749 71.8632C425.252 71.6745 424.826 71.4473 424.47 71.1817C424.113 70.9092 423.834 70.5912 423.631 70.2278C423.435 69.8573 423.337 69.431 423.337 68.9488C423.337 68.4805 423.439 68.0402 423.641 67.6279C423.844 67.2085 424.138 66.8416 424.522 66.5271C424.906 66.2056 425.375 65.954 425.927 65.7723C426.479 65.5836 427.101 65.4892 427.793 65.4892C428.757 65.4892 429.586 65.6465 430.277 65.961C430.976 66.2755 431.511 66.7088 431.881 67.2609C432.252 67.8061 432.437 68.4211 432.437 69.106H429.669C429.669 68.8055 429.599 68.5329 429.46 68.2883C429.327 68.0437 429.121 67.848 428.841 67.7012C428.562 67.5475 428.209 67.4706 427.782 67.4706C427.398 67.4706 427.073 67.5335 426.807 67.6593C426.549 67.7851 426.353 67.9494 426.22 68.152C426.088 68.3547 426.021 68.5784 426.021 68.823C426.021 69.0047 426.056 69.1689 426.126 69.3157C426.203 69.4555 426.325 69.5848 426.493 69.7036C426.661 69.8224 426.888 69.9307 427.174 70.0286C427.468 70.1264 427.828 70.2208 428.254 70.3116C429.1 70.4794 429.837 70.703 430.466 70.9826C431.102 71.2551 431.598 71.6186 431.955 72.0728C432.311 72.5271 432.489 73.1072 432.489 73.8131C432.489 74.3163 432.381 74.7776 432.164 75.1969C431.948 75.6093 431.633 75.9692 431.221 76.2767C430.809 76.5842 430.316 76.8253 429.743 77.0001C429.17 77.1678 428.523 77.2517 427.803 77.2517C426.762 77.2517 425.881 77.0665 425.162 76.696C424.442 76.3186 423.896 75.8434 423.526 75.2703C423.156 74.6902 422.97 74.0892 422.97 73.4671H425.623C425.644 73.9074 425.763 74.2604 425.979 74.526C426.196 74.7915 426.468 74.9837 426.797 75.1026C427.132 75.2144 427.485 75.2703 427.856 75.2703C428.275 75.2703 428.628 75.2144 428.915 75.1026C429.201 74.9837 429.418 74.8265 429.565 74.6308C429.711 74.4281 429.785 74.1975 429.785 73.9389ZM440.765 77.2517C439.905 77.2517 439.133 77.1119 438.448 76.8323C437.763 76.5528 437.18 76.1649 436.697 75.6687C436.222 75.1655 435.855 74.5819 435.597 73.9179C435.345 73.247 435.219 72.5271 435.219 71.7583V71.339C435.219 70.4654 435.345 69.6721 435.597 68.9593C435.848 68.2394 436.205 67.6209 436.666 67.1037C437.127 66.5865 437.679 66.1881 438.322 65.9086C438.965 65.629 439.675 65.4892 440.451 65.4892C441.254 65.4892 441.964 65.6255 442.579 65.8981C443.194 66.1637 443.707 66.5411 444.12 67.0303C444.532 67.5195 444.843 68.1066 445.053 68.7915C445.262 69.4695 445.367 70.2208 445.367 71.0455V72.2091H436.477V70.3011H442.642V70.0915C442.628 69.6512 442.544 69.2493 442.39 68.8859C442.236 68.5155 441.999 68.2219 441.677 68.0053C441.356 67.7816 440.94 67.6698 440.43 67.6698C440.017 67.6698 439.657 67.7607 439.35 67.9424C439.049 68.1171 438.798 68.3687 438.595 68.6972C438.399 69.0187 438.253 69.4031 438.155 69.8504C438.057 70.2976 438.008 70.7939 438.008 71.339V71.7583C438.008 72.2336 438.071 72.6739 438.197 73.0793C438.329 73.4846 438.522 73.8376 438.773 74.1381C439.032 74.4316 439.339 74.6623 439.696 74.83C440.059 74.9907 440.472 75.0711 440.933 75.0711C441.513 75.0711 442.037 74.9593 442.505 74.7356C442.981 74.505 443.393 74.166 443.742 73.7187L445.137 75.1655C444.899 75.5149 444.578 75.8504 444.172 76.1719C443.774 76.4934 443.292 76.7554 442.725 76.9581C442.159 77.1538 441.506 77.2517 440.765 77.2517ZM454.534 73.9389C454.534 73.7013 454.471 73.4881 454.345 73.2994C454.22 73.1107 453.982 72.9395 453.632 72.7857C453.29 72.625 452.787 72.4747 452.123 72.3349C451.536 72.2091 450.994 72.0519 450.498 71.8632C450.002 71.6745 449.575 71.4473 449.219 71.1817C448.862 70.9092 448.583 70.5912 448.38 70.2278C448.185 69.8573 448.087 69.431 448.087 68.9488C448.087 68.4805 448.188 68.0402 448.391 67.6279C448.593 67.2085 448.887 66.8416 449.271 66.5271C449.656 66.2056 450.124 65.954 450.676 65.7723C451.228 65.5836 451.85 65.4892 452.542 65.4892C453.507 65.4892 454.335 65.6465 455.027 65.961C455.726 66.2755 456.26 66.7088 456.631 67.2609C457.001 67.8061 457.186 68.4211 457.186 69.106H454.419C454.419 68.8055 454.349 68.5329 454.209 68.2883C454.076 68.0437 453.87 67.848 453.59 67.7012C453.311 67.5475 452.958 67.4706 452.532 67.4706C452.147 67.4706 451.822 67.5335 451.557 67.6593C451.298 67.7851 451.102 67.9494 450.97 68.152C450.837 68.3547 450.77 68.5784 450.77 68.823C450.77 69.0047 450.805 69.1689 450.875 69.3157C450.952 69.4555 451.074 69.5848 451.242 69.7036C451.41 69.8224 451.637 69.9307 451.924 70.0286C452.217 70.1264 452.577 70.2208 453.003 70.3116C453.849 70.4794 454.586 70.703 455.215 70.9826C455.851 71.2551 456.348 71.6186 456.704 72.0728C457.061 72.5271 457.239 73.1072 457.239 73.8131C457.239 74.3163 457.13 74.7776 456.914 75.1969C456.697 75.6093 456.383 75.9692 455.97 76.2767C455.558 76.5842 455.065 76.8253 454.492 77.0001C453.919 77.1678 453.272 77.2517 452.553 77.2517C451.511 77.2517 450.631 77.0665 449.911 76.696C449.191 76.3186 448.646 75.8434 448.275 75.2703C447.905 74.6902 447.72 74.0892 447.72 73.4671H450.372C450.393 73.9074 450.512 74.2604 450.729 74.526C450.945 74.7915 451.218 74.9837 451.546 75.1026C451.882 75.2144 452.235 75.2703 452.605 75.2703C453.024 75.2703 453.377 75.2144 453.664 75.1026C453.95 74.9837 454.167 74.8265 454.314 74.6308C454.461 74.4281 454.534 74.1975 454.534 73.9389ZM463.177 68.0262V77.042H460.409V65.6989H463.019L463.177 68.0262ZM462.768 70.9616H461.919C461.919 70.1718 462.013 69.445 462.202 68.781C462.397 68.1171 462.684 67.5405 463.061 67.0513C463.439 66.5551 463.903 66.1707 464.456 65.8981C465.015 65.6255 465.661 65.4892 466.395 65.4892C466.905 65.4892 467.373 65.5661 467.8 65.7199C468.226 65.8666 468.593 66.1008 468.901 66.4223C469.215 66.7368 469.456 67.1491 469.624 67.6593C469.792 68.1625 469.875 68.7671 469.875 69.4729V77.042H467.108V69.756C467.108 69.2248 467.031 68.809 466.877 68.5085C466.73 68.2079 466.517 67.9983 466.238 67.8795C465.958 67.7537 465.623 67.6908 465.231 67.6908C464.798 67.6908 464.424 67.7781 464.11 67.9528C463.802 68.1206 463.547 68.3547 463.344 68.6552C463.149 68.9558 463.002 69.3017 462.904 69.6931C462.813 70.0845 462.768 70.5073 462.768 70.9616ZM469.666 70.4479L468.523 70.6576C468.53 69.9447 468.628 69.2773 468.817 68.6552C469.005 68.0262 469.281 67.4776 469.645 67.0093C470.015 66.5341 470.473 66.1637 471.018 65.8981C471.57 65.6255 472.206 65.4892 472.926 65.4892C473.485 65.4892 473.988 65.5696 474.436 65.7304C474.89 65.8841 475.278 66.1322 475.599 66.4747C475.921 66.8102 476.166 67.247 476.333 67.7851C476.508 68.3233 476.595 68.9802 476.595 69.756V77.042H473.807V69.7455C473.807 69.1934 473.73 68.7706 473.576 68.477C473.429 68.1835 473.216 67.9808 472.937 67.869C472.657 67.7502 472.329 67.6908 471.951 67.6908C471.567 67.6908 471.231 67.7641 470.945 67.9109C470.665 68.0507 470.428 68.2464 470.232 68.498C470.043 68.7496 469.9 69.0431 469.802 69.3786C469.711 69.7071 469.666 70.0635 469.666 70.4479ZM485.248 77.2517C484.389 77.2517 483.616 77.1119 482.932 76.8323C482.247 76.5528 481.663 76.1649 481.181 75.6687C480.706 75.1655 480.339 74.5819 480.08 73.9179C479.828 73.247 479.703 72.5271 479.703 71.7583V71.339C479.703 70.4654 479.828 69.6721 480.08 68.9593C480.332 68.2394 480.688 67.6209 481.149 67.1037C481.611 66.5865 482.163 66.1881 482.806 65.9086C483.449 65.629 484.158 65.4892 484.934 65.4892C485.738 65.4892 486.447 65.6255 487.062 65.8981C487.677 66.1637 488.191 66.5411 488.603 67.0303C489.015 67.5195 489.326 68.1066 489.536 68.7915C489.746 69.4695 489.851 70.2208 489.851 71.0455V72.2091H480.961V70.3011H487.125V70.0915C487.111 69.6512 487.027 69.2493 486.873 68.8859C486.72 68.5155 486.482 68.2219 486.16 68.0053C485.839 67.7816 485.423 67.6698 484.913 67.6698C484.501 67.6698 484.141 67.7607 483.833 67.9424C483.533 68.1171 483.281 68.3687 483.078 68.6972C482.883 69.0187 482.736 69.4031 482.638 69.8504C482.54 70.2976 482.491 70.7939 482.491 71.339V71.7583C482.491 72.2336 482.554 72.6739 482.68 73.0793C482.813 73.4846 483.005 73.8376 483.257 74.1381C483.515 74.4316 483.823 74.6623 484.179 74.83C484.542 74.9907 484.955 75.0711 485.416 75.0711C485.996 75.0711 486.52 74.9593 486.989 74.7356C487.464 74.505 487.876 74.166 488.226 73.7187L489.62 75.1655C489.382 75.5149 489.061 75.8504 488.655 76.1719C488.257 76.4934 487.775 76.7554 487.209 76.9581C486.643 77.1538 485.989 77.2517 485.248 77.2517ZM495.495 68.1206V77.042H492.727V65.6989H495.327L495.495 68.1206ZM495.055 70.9616H494.237C494.244 70.1369 494.356 69.3891 494.572 68.7181C494.789 68.0472 495.093 67.4706 495.484 66.9884C495.883 66.5061 496.355 66.1357 496.9 65.8771C497.445 65.6185 498.053 65.4892 498.724 65.4892C499.269 65.4892 499.762 65.5661 500.202 65.7199C500.642 65.8736 501.02 66.1182 501.334 66.4537C501.656 66.7892 501.9 67.2295 502.068 67.7746C502.243 68.3128 502.33 68.9767 502.33 69.7665V77.042H499.542V69.7455C499.542 69.2283 499.465 68.8195 499.311 68.519C499.164 68.2184 498.947 68.0053 498.661 67.8795C498.381 67.7537 498.035 67.6908 497.623 67.6908C497.197 67.6908 496.823 67.7781 496.501 67.9528C496.187 68.1206 495.921 68.3547 495.705 68.6552C495.495 68.9558 495.334 69.3017 495.222 69.6931C495.111 70.0845 495.055 70.5073 495.055 70.9616ZM511.214 65.6989V67.6908H504.714V65.6989H511.214ZM506.454 62.9103H509.232V73.7712C509.232 74.1066 509.278 74.3652 509.369 74.5469C509.46 74.7286 509.596 74.851 509.778 74.9139C509.959 74.9768 510.176 75.0082 510.428 75.0082C510.609 75.0082 510.777 74.9977 510.931 74.9768C511.084 74.9558 511.214 74.9348 511.319 74.9139L511.329 76.9896C511.098 77.0665 510.836 77.1294 510.543 77.1783C510.256 77.2272 509.931 77.2517 509.568 77.2517C508.946 77.2517 508.401 77.1468 507.932 76.9372C507.464 76.7205 507.101 76.3745 506.842 75.8993C506.584 75.4171 506.454 74.7811 506.454 73.9913V62.9103Z" fill="#14539A"/>
<path d="M310.335 105.382C303.084 114.542 293.204 121.266 282.021 124.649C270.839 128.032 258.889 127.913 247.776 124.308C236.663 120.702 226.918 113.784 219.851 104.48C212.784 95.1768 208.732 83.934 208.24 72.2612" stroke="#F7D0AC" stroke-width="3.57835"/>
<circle cx="265.675" cy="69.7778" r="53.6752" fill="white"/>
<path d="M319.368 69.7778C319.368 60.8771 317.154 52.116 312.927 44.2834C308.699 36.4508 302.59 29.7924 295.149 24.9077C287.709 20.023 279.17 17.0653 270.302 16.3009C261.434 15.5364 252.516 16.9893 244.349 20.5285" stroke="#ACC1F7" stroke-width="3.57835"/>
<path d="M271.531 46.4775V92.1025H263.25V56.1338L252.281 59.7588V53.0713L270.594 46.4775H271.531Z" fill="#14539A"/>
<g filter="url(#filter2_d_1163_9357)">
<rect x="347.1" y="205.755" width="280.9" height="86.7749" rx="43.3875" fill="#F7D0AC"/>
</g>
<path d="M414.25 220.121V235.385H411.367V220.121H414.25ZM420.942 226.463V235.385H418.175V224.042H420.775L420.942 226.463ZM420.502 229.304H419.684C419.691 228.48 419.803 227.732 420.02 227.061C420.236 226.39 420.54 225.813 420.932 225.331C421.33 224.849 421.802 224.478 422.347 224.22C422.892 223.961 423.5 223.832 424.171 223.832C424.716 223.832 425.209 223.909 425.649 224.063C426.09 224.216 426.467 224.461 426.782 224.796C427.103 225.132 427.348 225.572 427.515 226.117C427.69 226.656 427.777 227.32 427.777 228.109V235.385H424.989V228.088C424.989 227.571 424.912 227.162 424.758 226.862C424.611 226.561 424.395 226.348 424.108 226.222C423.829 226.096 423.483 226.034 423.07 226.034C422.644 226.034 422.27 226.121 421.949 226.296C421.634 226.463 421.369 226.697 421.152 226.998C420.942 227.299 420.782 227.644 420.67 228.036C420.558 228.427 420.502 228.85 420.502 229.304ZM438.097 232.974V219.282H440.886V235.385H438.37L438.097 232.974ZM430.811 229.85V229.629C430.811 228.763 430.909 227.976 431.105 227.271C431.308 226.558 431.601 225.946 431.986 225.436C432.37 224.926 432.835 224.531 433.38 224.251C433.932 223.972 434.557 223.832 435.256 223.832C435.934 223.832 436.525 223.968 437.028 224.241C437.538 224.513 437.972 224.901 438.328 225.405C438.691 225.908 438.981 226.505 439.198 227.197C439.415 227.882 439.572 228.637 439.67 229.462V230.059C439.572 230.863 439.415 231.6 439.198 232.271C438.981 232.942 438.691 233.529 438.328 234.032C437.972 234.529 437.538 234.913 437.028 235.186C436.518 235.458 435.92 235.594 435.235 235.594C434.543 235.594 433.921 235.451 433.369 235.165C432.824 234.878 432.359 234.476 431.975 233.959C431.598 233.442 431.308 232.834 431.105 232.135C430.909 231.436 430.811 230.674 430.811 229.85ZM433.589 229.629V229.85C433.589 230.339 433.631 230.797 433.715 231.223C433.799 231.649 433.935 232.027 434.124 232.355C434.313 232.677 434.554 232.928 434.848 233.11C435.148 233.292 435.511 233.382 435.938 233.382C436.483 233.382 436.93 233.264 437.28 233.026C437.636 232.781 437.912 232.449 438.108 232.03C438.304 231.604 438.429 231.125 438.485 230.594V228.948C438.457 228.529 438.384 228.141 438.265 227.784C438.153 227.428 437.993 227.12 437.783 226.862C437.58 226.603 437.329 226.4 437.028 226.254C436.728 226.107 436.371 226.034 435.959 226.034C435.532 226.034 435.169 226.128 434.868 226.317C434.568 226.498 434.323 226.753 434.135 227.082C433.946 227.41 433.806 227.791 433.715 228.225C433.631 228.658 433.589 229.126 433.589 229.629ZM447.4 224.042V235.385H444.622V224.042H447.4ZM444.434 221.075C444.434 220.663 444.573 220.32 444.853 220.047C445.139 219.775 445.524 219.639 446.006 219.639C446.488 219.639 446.869 219.775 447.149 220.047C447.435 220.32 447.579 220.663 447.579 221.075C447.579 221.48 447.435 221.819 447.149 222.092C446.869 222.364 446.488 222.501 446.006 222.501C445.524 222.501 445.139 222.364 444.853 222.092C444.573 221.819 444.434 221.48 444.434 221.075ZM454.879 233.288L457.521 224.042H460.415L456.525 235.385H454.764L454.879 233.288ZM452.95 224.042L455.624 233.309L455.718 235.385H453.946L450.046 224.042H452.95ZM465.881 224.042V235.385H463.102V224.042H465.881ZM462.914 221.075C462.914 220.663 463.054 220.32 463.333 220.047C463.62 219.775 464.004 219.639 464.486 219.639C464.969 219.639 465.349 219.775 465.629 220.047C465.916 220.32 466.059 220.663 466.059 221.075C466.059 221.48 465.916 221.819 465.629 222.092C465.349 222.364 464.969 222.501 464.486 222.501C464.004 222.501 463.62 222.364 463.333 222.092C463.054 221.819 462.914 221.48 462.914 221.075ZM476.4 232.974V219.282H479.188V235.385H476.672L476.4 232.974ZM469.114 229.85V229.629C469.114 228.763 469.212 227.976 469.407 227.271C469.61 226.558 469.903 225.946 470.288 225.436C470.672 224.926 471.137 224.531 471.682 224.251C472.234 223.972 472.86 223.832 473.559 223.832C474.237 223.832 474.827 223.968 475.33 224.241C475.841 224.513 476.274 224.901 476.63 225.405C476.994 225.908 477.284 226.505 477.5 227.197C477.717 227.882 477.874 228.637 477.972 229.462V230.059C477.874 230.863 477.717 231.6 477.5 232.271C477.284 232.942 476.994 233.529 476.63 234.032C476.274 234.529 475.841 234.913 475.33 235.186C474.82 235.458 474.223 235.594 473.538 235.594C472.846 235.594 472.224 235.451 471.672 235.165C471.127 234.878 470.662 234.476 470.277 233.959C469.9 233.442 469.61 232.834 469.407 232.135C469.212 231.436 469.114 230.674 469.114 229.85ZM471.892 229.629V229.85C471.892 230.339 471.934 230.797 472.018 231.223C472.101 231.649 472.238 232.027 472.426 232.355C472.615 232.677 472.856 232.928 473.15 233.11C473.45 233.292 473.814 233.382 474.24 233.382C474.785 233.382 475.233 233.264 475.582 233.026C475.938 232.781 476.214 232.449 476.41 232.03C476.606 231.604 476.732 231.125 476.788 230.594V228.948C476.76 228.529 476.686 228.141 476.567 227.784C476.456 227.428 476.295 227.12 476.085 226.862C475.882 226.603 475.631 226.4 475.33 226.254C475.03 226.107 474.673 226.034 474.261 226.034C473.835 226.034 473.471 226.128 473.171 226.317C472.87 226.498 472.626 226.753 472.437 227.082C472.248 227.41 472.108 227.791 472.018 228.225C471.934 228.658 471.892 229.126 471.892 229.629ZM489.519 232.691V224.042H492.307V235.385H489.686L489.519 232.691ZM489.875 230.342L490.735 230.321C490.735 231.083 490.651 231.785 490.483 232.428C490.315 233.071 490.053 233.631 489.697 234.106C489.347 234.574 488.904 234.941 488.365 235.207C487.827 235.465 487.191 235.594 486.457 235.594C485.898 235.594 485.388 235.518 484.927 235.364C484.466 235.203 484.067 234.955 483.732 234.619C483.403 234.277 483.148 233.84 482.966 233.309C482.785 232.771 482.694 232.124 482.694 231.37V224.042H485.462V231.391C485.462 231.768 485.503 232.082 485.587 232.334C485.678 232.586 485.801 232.792 485.954 232.953C486.115 233.106 486.3 233.218 486.51 233.288C486.727 233.351 486.957 233.382 487.202 233.382C487.873 233.382 488.4 233.25 488.785 232.984C489.176 232.711 489.456 232.348 489.623 231.894C489.791 231.433 489.875 230.915 489.875 230.342ZM502.082 232.974V227.742C502.082 227.358 502.016 227.026 501.883 226.746C501.75 226.467 501.547 226.25 501.275 226.096C501.002 225.943 500.656 225.866 500.237 225.866C499.866 225.866 499.542 225.929 499.262 226.055C498.989 226.18 498.78 226.359 498.633 226.589C498.486 226.813 498.413 227.071 498.413 227.365H495.635C495.635 226.897 495.747 226.453 495.97 226.034C496.194 225.607 496.512 225.23 496.924 224.901C497.343 224.566 497.843 224.304 498.423 224.115C499.01 223.926 499.667 223.832 500.394 223.832C501.254 223.832 502.019 223.979 502.69 224.272C503.368 224.559 503.899 224.992 504.284 225.572C504.675 226.152 504.871 226.883 504.871 227.763V232.711C504.871 233.278 504.906 233.763 504.975 234.169C505.052 234.567 505.164 234.913 505.311 235.207V235.385H502.491C502.358 235.098 502.257 234.735 502.187 234.294C502.117 233.847 502.082 233.407 502.082 232.974ZM502.47 228.476L502.491 230.122H500.74C500.307 230.122 499.926 230.168 499.597 230.258C499.269 230.342 499 230.468 498.79 230.636C498.581 230.797 498.423 230.992 498.318 231.223C498.214 231.446 498.161 231.702 498.161 231.988C498.161 232.268 498.224 232.519 498.35 232.743C498.483 232.967 498.671 233.145 498.916 233.278C499.168 233.403 499.461 233.466 499.797 233.466C500.286 233.466 500.712 233.368 501.076 233.173C501.439 232.97 501.722 232.725 501.925 232.439C502.127 232.152 502.236 231.88 502.25 231.621L503.046 232.816C502.949 233.103 502.802 233.407 502.606 233.728C502.41 234.05 502.159 234.35 501.851 234.63C501.544 234.91 501.173 235.14 500.74 235.322C500.307 235.504 499.804 235.594 499.231 235.594C498.497 235.594 497.84 235.448 497.26 235.154C496.68 234.861 496.222 234.459 495.886 233.949C495.551 233.438 495.383 232.858 495.383 232.208C495.383 231.607 495.495 231.076 495.719 230.615C495.942 230.154 496.274 229.766 496.714 229.451C497.155 229.13 497.7 228.889 498.35 228.728C499.007 228.56 499.758 228.476 500.604 228.476H502.47ZM511.375 219.282V235.385H508.596V219.282H511.375ZM518.025 224.042V235.385H515.247V224.042H518.025ZM515.058 221.075C515.058 220.663 515.198 220.32 515.478 220.047C515.764 219.775 516.149 219.639 516.631 219.639C517.113 219.639 517.494 219.775 517.774 220.047C518.06 220.32 518.203 220.663 518.203 221.075C518.203 221.48 518.06 221.819 517.774 222.092C517.494 222.364 517.113 222.501 516.631 222.501C516.149 222.501 515.764 222.364 515.478 222.092C515.198 221.819 515.058 221.48 515.058 221.075ZM530.631 233.204V235.385H522.097V233.204H530.631ZM530.431 225.698L523.135 235.385H521.311V233.676L528.565 224.042H530.431V225.698ZM529.414 224.042V226.233H521.457V224.042H529.414ZM538.602 235.594C537.742 235.594 536.97 235.455 536.285 235.175C535.6 234.896 535.017 234.508 534.535 234.011C534.059 233.508 533.692 232.925 533.434 232.261C533.182 231.59 533.056 230.87 533.056 230.101V229.682C533.056 228.808 533.182 228.015 533.434 227.302C533.685 226.582 534.042 225.964 534.503 225.446C534.964 224.929 535.516 224.531 536.159 224.251C536.802 223.972 537.512 223.832 538.288 223.832C539.091 223.832 539.801 223.968 540.416 224.241C541.031 224.506 541.544 224.884 541.957 225.373C542.369 225.862 542.68 226.449 542.89 227.134C543.1 227.812 543.204 228.564 543.204 229.388V230.552H534.314V228.644H540.479V228.434C540.465 227.994 540.381 227.592 540.227 227.229C540.073 226.858 539.836 226.565 539.514 226.348C539.193 226.124 538.777 226.013 538.267 226.013C537.854 226.013 537.494 226.103 537.187 226.285C536.886 226.46 536.635 226.711 536.432 227.04C536.236 227.361 536.09 227.746 535.992 228.193C535.894 228.64 535.845 229.137 535.845 229.682V230.101C535.845 230.576 535.908 231.017 536.034 231.422C536.166 231.827 536.359 232.18 536.61 232.481C536.869 232.774 537.176 233.005 537.533 233.173C537.896 233.334 538.309 233.414 538.77 233.414C539.35 233.414 539.874 233.302 540.342 233.078C540.818 232.848 541.23 232.509 541.579 232.062L542.974 233.508C542.736 233.858 542.415 234.193 542.009 234.515C541.611 234.836 541.129 235.098 540.563 235.301C539.996 235.497 539.343 235.594 538.602 235.594ZM552.937 232.974V219.282H555.726V235.385H553.21L552.937 232.974ZM545.651 229.85V229.629C545.651 228.763 545.749 227.976 545.945 227.271C546.147 226.558 546.441 225.946 546.825 225.436C547.21 224.926 547.674 224.531 548.22 224.251C548.772 223.972 549.397 223.832 550.096 223.832C550.774 223.832 551.365 223.968 551.868 224.241C552.378 224.513 552.811 224.901 553.168 225.405C553.531 225.908 553.821 226.505 554.038 227.197C554.255 227.882 554.412 228.637 554.51 229.462V230.059C554.412 230.863 554.255 231.6 554.038 232.271C553.821 232.942 553.531 233.529 553.168 234.032C552.811 234.529 552.378 234.913 551.868 235.186C551.358 235.458 550.76 235.594 550.075 235.594C549.383 235.594 548.761 235.451 548.209 235.165C547.664 234.878 547.199 234.476 546.815 233.959C546.437 233.442 546.147 232.834 545.945 232.135C545.749 231.436 545.651 230.674 545.651 229.85ZM548.429 229.629V229.85C548.429 230.339 548.471 230.797 548.555 231.223C548.639 231.649 548.775 232.027 548.964 232.355C549.153 232.677 549.394 232.928 549.687 233.11C549.988 233.292 550.351 233.382 550.778 233.382C551.323 233.382 551.77 233.264 552.119 233.026C552.476 232.781 552.752 232.449 552.948 232.03C553.143 231.604 553.269 231.125 553.325 230.594V228.948C553.297 228.529 553.224 228.141 553.105 227.784C552.993 227.428 552.832 227.12 552.623 226.862C552.42 226.603 552.168 226.4 551.868 226.254C551.567 226.107 551.211 226.034 550.799 226.034C550.372 226.034 550.009 226.128 549.708 226.317C549.408 226.498 549.163 226.753 548.974 227.082C548.786 227.41 548.646 227.791 548.555 228.225C548.471 228.658 548.429 229.126 548.429 229.629ZM421.295 254.12V256.385H413.18V254.12H421.295ZM414.061 241.121V256.385H411.178V241.121H414.061ZM420.236 247.421V249.633H413.18V247.421H420.236ZM421.263 241.121V243.396H413.18V241.121H421.263ZM430.755 253.974V240.282H433.543V256.385H431.027L430.755 253.974ZM423.469 250.85V250.629C423.469 249.763 423.567 248.976 423.762 248.271C423.965 247.558 424.259 246.946 424.643 246.436C425.027 245.926 425.492 245.531 426.037 245.251C426.589 244.972 427.215 244.832 427.914 244.832C428.592 244.832 429.182 244.968 429.685 245.241C430.196 245.513 430.629 245.901 430.985 246.405C431.349 246.908 431.639 247.505 431.856 248.197C432.072 248.882 432.229 249.637 432.327 250.462V251.059C432.229 251.863 432.072 252.6 431.856 253.271C431.639 253.942 431.349 254.529 430.985 255.032C430.629 255.529 430.196 255.913 429.685 256.186C429.175 256.458 428.578 256.594 427.893 256.594C427.201 256.594 426.579 256.451 426.027 256.165C425.482 255.878 425.017 255.476 424.632 254.959C424.255 254.442 423.965 253.834 423.762 253.135C423.567 252.436 423.469 251.674 423.469 250.85ZM426.247 250.629V250.85C426.247 251.339 426.289 251.797 426.373 252.223C426.457 252.649 426.593 253.027 426.782 253.355C426.97 253.677 427.211 253.928 427.505 254.11C427.805 254.292 428.169 254.382 428.595 254.382C429.14 254.382 429.588 254.264 429.937 254.026C430.294 253.781 430.57 253.449 430.765 253.03C430.961 252.604 431.087 252.125 431.143 251.594V249.948C431.115 249.529 431.041 249.141 430.923 248.784C430.811 248.428 430.65 248.12 430.44 247.862C430.238 247.603 429.986 247.4 429.685 247.254C429.385 247.107 429.029 247.034 428.616 247.034C428.19 247.034 427.826 247.128 427.526 247.317C427.225 247.498 426.981 247.753 426.792 248.082C426.603 248.41 426.464 248.791 426.373 249.225C426.289 249.658 426.247 250.126 426.247 250.629ZM443.874 253.691V245.042H446.662V256.385H444.041L443.874 253.691ZM444.23 251.342L445.09 251.321C445.09 252.083 445.006 252.785 444.838 253.428C444.67 254.071 444.408 254.631 444.052 255.106C443.703 255.574 443.259 255.941 442.721 256.207C442.182 256.465 441.546 256.594 440.813 256.594C440.253 256.594 439.743 256.518 439.282 256.364C438.821 256.203 438.422 255.955 438.087 255.619C437.758 255.277 437.503 254.84 437.322 254.309C437.14 253.771 437.049 253.124 437.049 252.37V245.042H439.817V252.391C439.817 252.768 439.859 253.082 439.942 253.334C440.033 253.586 440.156 253.792 440.309 253.953C440.47 254.106 440.655 254.218 440.865 254.288C441.082 254.351 441.312 254.382 441.557 254.382C442.228 254.382 442.756 254.25 443.14 253.984C443.531 253.711 443.811 253.348 443.979 252.894C444.146 252.433 444.23 251.915 444.23 251.342ZM454.844 254.414C455.235 254.414 455.584 254.337 455.892 254.183C456.199 254.029 456.444 253.813 456.626 253.533C456.815 253.254 456.916 252.929 456.93 252.558H459.54C459.526 253.327 459.31 254.016 458.89 254.624C458.471 255.232 457.912 255.714 457.213 256.07C456.521 256.42 455.745 256.594 454.886 256.594C454.012 256.594 453.25 256.448 452.6 256.154C451.95 255.861 451.409 255.452 450.975 254.928C450.549 254.403 450.227 253.795 450.011 253.103C449.801 252.412 449.696 251.671 449.696 250.881V250.545C449.696 249.756 449.801 249.015 450.011 248.323C450.227 247.631 450.549 247.023 450.975 246.499C451.409 245.975 451.95 245.566 452.6 245.272C453.25 244.979 454.008 244.832 454.875 244.832C455.791 244.832 456.594 245.01 457.286 245.367C457.985 245.723 458.53 246.226 458.922 246.876C459.32 247.526 459.526 248.292 459.54 249.172H456.93C456.916 248.767 456.825 248.403 456.657 248.082C456.49 247.76 456.252 247.502 455.944 247.306C455.637 247.11 455.263 247.013 454.823 247.013C454.354 247.013 453.963 247.11 453.649 247.306C453.341 247.502 453.1 247.771 452.925 248.113C452.757 248.449 452.639 248.826 452.569 249.246C452.506 249.658 452.474 250.091 452.474 250.545V250.881C452.474 251.342 452.506 251.783 452.569 252.202C452.639 252.621 452.757 252.999 452.925 253.334C453.1 253.663 453.341 253.925 453.649 254.12C453.963 254.316 454.361 254.414 454.844 254.414ZM468.707 253.974V248.742C468.707 248.358 468.641 248.026 468.508 247.746C468.375 247.467 468.172 247.25 467.9 247.096C467.627 246.943 467.281 246.866 466.862 246.866C466.491 246.866 466.166 246.929 465.887 247.055C465.614 247.18 465.405 247.359 465.258 247.589C465.111 247.813 465.038 248.071 465.038 248.365H462.26C462.26 247.897 462.371 247.453 462.595 247.034C462.819 246.607 463.137 246.23 463.549 245.901C463.968 245.566 464.468 245.304 465.048 245.115C465.635 244.926 466.292 244.832 467.019 244.832C467.879 244.832 468.644 244.979 469.315 245.272C469.993 245.559 470.524 245.992 470.908 246.572C471.3 247.152 471.496 247.883 471.496 248.763V253.711C471.496 254.278 471.53 254.763 471.6 255.169C471.677 255.567 471.789 255.913 471.936 256.207V256.385H469.116C468.983 256.098 468.882 255.735 468.812 255.294C468.742 254.847 468.707 254.407 468.707 253.974ZM469.095 249.476L469.116 251.122H467.365C466.932 251.122 466.551 251.168 466.222 251.258C465.894 251.342 465.625 251.468 465.415 251.636C465.205 251.797 465.048 251.992 464.943 252.223C464.839 252.446 464.786 252.702 464.786 252.988C464.786 253.268 464.849 253.519 464.975 253.743C465.108 253.967 465.296 254.145 465.541 254.278C465.793 254.403 466.086 254.466 466.422 254.466C466.911 254.466 467.337 254.368 467.701 254.173C468.064 253.97 468.347 253.725 468.55 253.439C468.752 253.152 468.861 252.88 468.875 252.621L469.671 253.816C469.574 254.103 469.427 254.407 469.231 254.728C469.035 255.05 468.784 255.35 468.476 255.63C468.169 255.91 467.798 256.14 467.365 256.322C466.932 256.504 466.429 256.594 465.855 256.594C465.122 256.594 464.465 256.448 463.885 256.154C463.304 255.861 462.847 255.459 462.511 254.949C462.176 254.438 462.008 253.858 462.008 253.208C462.008 252.607 462.12 252.076 462.343 251.615C462.567 251.154 462.899 250.766 463.339 250.451C463.78 250.13 464.325 249.889 464.975 249.728C465.632 249.56 466.383 249.476 467.229 249.476H469.095ZM480.432 245.042V247.034H473.932V245.042H480.432ZM475.672 242.253H478.45V253.114C478.45 253.449 478.496 253.708 478.587 253.89C478.677 254.071 478.814 254.194 478.995 254.257C479.177 254.32 479.394 254.351 479.645 254.351C479.827 254.351 479.995 254.34 480.149 254.32C480.302 254.299 480.432 254.278 480.536 254.257L480.547 256.332C480.316 256.409 480.054 256.472 479.761 256.521C479.474 256.57 479.149 256.594 478.786 256.594C478.164 256.594 477.619 256.49 477.15 256.28C476.682 256.063 476.319 255.717 476.06 255.242C475.801 254.76 475.672 254.124 475.672 253.334V242.253ZM486.286 245.042V256.385H483.507V245.042H486.286ZM483.319 242.075C483.319 241.663 483.459 241.32 483.738 241.047C484.025 240.775 484.409 240.639 484.891 240.639C485.373 240.639 485.754 240.775 486.034 241.047C486.321 241.32 486.464 241.663 486.464 242.075C486.464 242.48 486.321 242.819 486.034 243.092C485.754 243.364 485.373 243.501 484.891 243.501C484.409 243.501 484.025 243.364 483.738 243.092C483.459 242.819 483.319 242.48 483.319 242.075ZM489.508 250.829V250.608C489.508 249.777 489.627 249.011 489.865 248.313C490.102 247.607 490.448 246.995 490.902 246.478C491.357 245.961 491.912 245.559 492.569 245.272C493.226 244.979 493.974 244.832 494.813 244.832C495.665 244.832 496.42 244.979 497.077 245.272C497.741 245.559 498.3 245.961 498.755 246.478C499.209 246.995 499.555 247.607 499.792 248.313C500.03 249.011 500.149 249.777 500.149 250.608V250.829C500.149 251.653 500.03 252.419 499.792 253.124C499.555 253.823 499.209 254.435 498.755 254.959C498.3 255.476 497.745 255.878 497.088 256.165C496.431 256.451 495.679 256.594 494.834 256.594C493.995 256.594 493.244 256.451 492.58 256.165C491.916 255.878 491.357 255.476 490.902 254.959C490.448 254.435 490.102 253.823 489.865 253.124C489.627 252.419 489.508 251.653 489.508 250.829ZM492.276 250.608V250.829C492.276 251.325 492.325 251.79 492.423 252.223C492.52 252.656 492.671 253.037 492.873 253.366C493.076 253.694 493.338 253.953 493.66 254.141C493.988 254.323 494.379 254.414 494.834 254.414C495.281 254.414 495.665 254.323 495.987 254.141C496.308 253.953 496.571 253.694 496.773 253.366C496.983 253.037 497.137 252.656 497.234 252.223C497.332 251.79 497.381 251.325 497.381 250.829V250.608C497.381 250.119 497.332 249.661 497.234 249.235C497.137 248.802 496.983 248.421 496.773 248.092C496.571 247.757 496.305 247.495 495.976 247.306C495.655 247.11 495.267 247.013 494.813 247.013C494.365 247.013 493.981 247.11 493.66 247.306C493.338 247.495 493.076 247.757 492.873 248.092C492.671 248.421 492.52 248.802 492.423 249.235C492.325 249.661 492.276 250.119 492.276 250.608ZM505.95 247.463V256.385H503.183V245.042H505.783L505.95 247.463ZM505.51 250.304H504.692C504.699 249.48 504.811 248.732 505.028 248.061C505.245 247.39 505.549 246.813 505.94 246.331C506.338 245.849 506.81 245.478 507.355 245.22C507.9 244.961 508.508 244.832 509.179 244.832C509.724 244.832 510.217 244.909 510.657 245.063C511.098 245.216 511.475 245.461 511.79 245.796C512.111 246.132 512.356 246.572 512.524 247.117C512.698 247.656 512.786 248.32 512.786 249.109V256.385H509.997V249.088C509.997 248.571 509.92 248.162 509.766 247.862C509.62 247.561 509.403 247.348 509.116 247.222C508.837 247.096 508.491 247.034 508.079 247.034C507.652 247.034 507.278 247.121 506.957 247.296C506.642 247.463 506.377 247.697 506.16 247.998C505.95 248.299 505.79 248.644 505.678 249.036C505.566 249.427 505.51 249.85 505.51 250.304ZM528.802 250.818H524.871V248.554H528.802C529.445 248.554 529.966 248.449 530.364 248.239C530.77 248.022 531.067 247.729 531.255 247.359C531.444 246.981 531.538 246.551 531.538 246.069C531.538 245.601 531.444 245.164 531.255 244.759C531.067 244.353 530.77 244.025 530.364 243.773C529.966 243.522 529.445 243.396 528.802 243.396H525.814V256.385H522.931V241.121H528.802C529.99 241.121 531.004 241.334 531.842 241.76C532.688 242.18 533.331 242.763 533.771 243.511C534.219 244.252 534.442 245.098 534.442 246.048C534.442 247.034 534.219 247.883 533.771 248.596C533.331 249.308 532.688 249.857 531.842 250.241C531.004 250.626 529.99 250.818 528.802 250.818ZM540.506 240.282V256.385H537.728V240.282H540.506ZM550.469 253.974V248.742C550.469 248.358 550.403 248.026 550.27 247.746C550.137 247.467 549.935 247.25 549.662 247.096C549.39 246.943 549.044 246.866 548.624 246.866C548.254 246.866 547.929 246.929 547.649 247.055C547.377 247.18 547.167 247.359 547.02 247.589C546.874 247.813 546.8 248.071 546.8 248.365H544.022C544.022 247.897 544.134 247.453 544.358 247.034C544.581 246.607 544.899 246.23 545.312 245.901C545.731 245.566 546.231 245.304 546.811 245.115C547.398 244.926 548.055 244.832 548.782 244.832C549.641 244.832 550.406 244.979 551.077 245.272C551.755 245.559 552.287 245.992 552.671 246.572C553.062 247.152 553.258 247.883 553.258 248.763V253.711C553.258 254.278 553.293 254.763 553.363 255.169C553.44 255.567 553.552 255.913 553.698 256.207V256.385H550.878C550.745 256.098 550.644 255.735 550.574 255.294C550.504 254.847 550.469 254.407 550.469 253.974ZM550.857 249.476L550.878 251.122H549.127C548.694 251.122 548.313 251.168 547.985 251.258C547.656 251.342 547.387 251.468 547.178 251.636C546.968 251.797 546.811 251.992 546.706 252.223C546.601 252.446 546.549 252.702 546.549 252.988C546.549 253.268 546.611 253.519 546.737 253.743C546.87 253.967 547.059 254.145 547.303 254.278C547.555 254.403 547.849 254.466 548.184 254.466C548.673 254.466 549.1 254.368 549.463 254.173C549.826 253.97 550.109 253.725 550.312 253.439C550.515 253.152 550.623 252.88 550.637 252.621L551.434 253.816C551.336 254.103 551.189 254.407 550.994 254.728C550.798 255.05 550.546 255.35 550.239 255.63C549.931 255.91 549.561 256.14 549.127 256.322C548.694 256.504 548.191 256.594 547.618 256.594C546.884 256.594 546.227 256.448 545.647 256.154C545.067 255.861 544.609 255.459 544.274 254.949C543.938 254.438 543.77 253.858 543.77 253.208C543.77 252.607 543.882 252.076 544.106 251.615C544.33 251.154 544.662 250.766 545.102 250.451C545.542 250.13 546.087 249.889 546.737 249.728C547.394 249.56 548.146 249.476 548.991 249.476H550.857ZM559.542 247.463V256.385H556.774V245.042H559.374L559.542 247.463ZM559.101 250.304H558.284C558.291 249.48 558.403 248.732 558.619 248.061C558.836 247.39 559.14 246.813 559.531 246.331C559.93 245.849 560.401 245.478 560.947 245.22C561.492 244.961 562.1 244.832 562.771 244.832C563.316 244.832 563.808 244.909 564.249 245.063C564.689 245.216 565.067 245.461 565.381 245.796C565.703 246.132 565.947 246.572 566.115 247.117C566.29 247.656 566.377 248.32 566.377 249.109V256.385H563.588V249.088C563.588 248.571 563.511 248.162 563.358 247.862C563.211 247.561 562.994 247.348 562.708 247.222C562.428 247.096 562.082 247.034 561.67 247.034C561.244 247.034 560.87 247.121 560.548 247.296C560.234 247.463 559.968 247.697 559.751 247.998C559.542 248.299 559.381 248.644 559.269 249.036C559.157 249.427 559.101 249.85 559.101 250.304ZM423.087 269.491V275.435C422.864 275.721 422.511 276.032 422.028 276.368C421.553 276.703 420.931 276.993 420.162 277.238C419.394 277.476 418.45 277.594 417.332 277.594C416.36 277.594 415.473 277.434 414.669 277.112C413.865 276.784 413.173 276.305 412.593 275.676C412.013 275.047 411.566 274.278 411.251 273.37C410.937 272.461 410.78 271.423 410.78 270.256V269.25C410.78 268.082 410.926 267.045 411.22 266.136C411.52 265.227 411.947 264.459 412.499 263.83C413.058 263.201 413.725 262.722 414.501 262.393C415.284 262.065 416.158 261.901 417.122 261.901C418.415 261.901 419.477 262.114 420.309 262.54C421.148 262.967 421.791 263.554 422.238 264.301C422.685 265.042 422.965 265.895 423.077 266.859H420.267C420.19 266.328 420.037 265.863 419.806 265.465C419.575 265.06 419.247 264.745 418.82 264.522C418.401 264.291 417.856 264.176 417.185 264.176C416.619 264.176 416.119 264.287 415.686 264.511C415.253 264.735 414.889 265.06 414.596 265.486C414.302 265.912 414.078 266.44 413.925 267.069C413.778 267.698 413.705 268.418 413.705 269.229V270.256C413.705 271.074 413.788 271.801 413.956 272.437C414.124 273.066 414.365 273.597 414.679 274.03C415.001 274.456 415.396 274.781 415.864 275.005C416.339 275.222 416.877 275.33 417.479 275.33C418.024 275.33 418.474 275.285 418.831 275.194C419.194 275.096 419.484 274.981 419.701 274.848C419.918 274.715 420.085 274.586 420.204 274.46V271.598H417.175V269.491H423.087ZM431.772 277.594C430.912 277.594 430.14 277.455 429.455 277.175C428.77 276.896 428.186 276.508 427.704 276.011C427.229 275.508 426.862 274.925 426.603 274.261C426.352 273.59 426.226 272.87 426.226 272.101V271.682C426.226 270.808 426.352 270.015 426.603 269.302C426.855 268.582 427.211 267.964 427.673 267.446C428.134 266.929 428.686 266.531 429.329 266.251C429.972 265.972 430.681 265.832 431.457 265.832C432.261 265.832 432.97 265.968 433.585 266.241C434.2 266.506 434.714 266.884 435.126 267.373C435.539 267.862 435.85 268.449 436.059 269.134C436.269 269.812 436.374 270.564 436.374 271.388V272.552H427.484V270.644H433.648V270.434C433.634 269.994 433.55 269.592 433.397 269.229C433.243 268.858 433.005 268.565 432.684 268.348C432.362 268.124 431.946 268.013 431.436 268.013C431.024 268.013 430.664 268.103 430.356 268.285C430.056 268.46 429.804 268.711 429.602 269.04C429.406 269.361 429.259 269.746 429.161 270.193C429.063 270.64 429.015 271.137 429.015 271.682V272.101C429.015 272.576 429.077 273.017 429.203 273.422C429.336 273.827 429.528 274.18 429.78 274.481C430.038 274.774 430.346 275.005 430.702 275.173C431.066 275.334 431.478 275.414 431.939 275.414C432.519 275.414 433.044 275.302 433.512 275.078C433.987 274.848 434.4 274.509 434.749 274.062L436.143 275.508C435.906 275.858 435.584 276.193 435.179 276.515C434.78 276.836 434.298 277.098 433.732 277.301C433.166 277.497 432.512 277.594 431.772 277.594ZM442.018 268.463V277.385H439.251V266.042H441.85L442.018 268.463ZM441.578 271.304H440.76C440.767 270.48 440.879 269.732 441.096 269.061C441.312 268.39 441.616 267.813 442.008 267.331C442.406 266.849 442.878 266.478 443.423 266.22C443.968 265.961 444.576 265.832 445.247 265.832C445.792 265.832 446.285 265.909 446.725 266.063C447.166 266.216 447.543 266.461 447.857 266.796C448.179 267.132 448.424 267.572 448.591 268.117C448.766 268.656 448.853 269.32 448.853 270.109V277.385H446.065V270.088C446.065 269.571 445.988 269.162 445.834 268.862C445.687 268.561 445.471 268.348 445.184 268.222C444.905 268.096 444.559 268.034 444.146 268.034C443.72 268.034 443.346 268.121 443.025 268.296C442.71 268.463 442.445 268.697 442.228 268.998C442.018 269.299 441.857 269.644 441.746 270.036C441.634 270.427 441.578 270.85 441.578 271.304ZM457.464 277.594C456.605 277.594 455.833 277.455 455.148 277.175C454.463 276.896 453.879 276.508 453.397 276.011C452.922 275.508 452.555 274.925 452.296 274.261C452.045 273.59 451.919 272.87 451.919 272.101V271.682C451.919 270.808 452.045 270.015 452.296 269.302C452.548 268.582 452.904 267.964 453.365 267.446C453.827 266.929 454.379 266.531 455.022 266.251C455.665 265.972 456.374 265.832 457.15 265.832C457.954 265.832 458.663 265.968 459.278 266.241C459.893 266.506 460.407 266.884 460.819 267.373C461.232 267.862 461.543 268.449 461.752 269.134C461.962 269.812 462.067 270.564 462.067 271.388V272.552H453.177V270.644H459.341V270.434C459.327 269.994 459.243 269.592 459.089 269.229C458.936 268.858 458.698 268.565 458.377 268.348C458.055 268.124 457.639 268.013 457.129 268.013C456.717 268.013 456.357 268.103 456.049 268.285C455.749 268.46 455.497 268.711 455.294 269.04C455.099 269.361 454.952 269.746 454.854 270.193C454.756 270.64 454.707 271.137 454.707 271.682V272.101C454.707 272.576 454.77 273.017 454.896 273.422C455.029 273.827 455.221 274.18 455.473 274.481C455.731 274.774 456.039 275.005 456.395 275.173C456.759 275.334 457.171 275.414 457.632 275.414C458.212 275.414 458.736 275.302 459.205 275.078C459.68 274.848 460.092 274.509 460.442 274.062L461.836 275.508C461.598 275.858 461.277 276.193 460.872 276.515C460.473 276.836 459.991 277.098 459.425 277.301C458.859 277.497 458.205 277.594 457.464 277.594ZM467.763 268.359V277.385H464.996V266.042H467.617L467.763 268.359ZM471.212 265.968L471.171 268.547C471.017 268.519 470.842 268.498 470.646 268.484C470.458 268.47 470.279 268.463 470.112 268.463C469.685 268.463 469.311 268.523 468.99 268.642C468.668 268.753 468.399 268.918 468.183 269.134C467.973 269.351 467.812 269.617 467.701 269.931C467.589 270.239 467.526 270.588 467.512 270.979L466.914 270.906C466.914 270.186 466.988 269.519 467.134 268.904C467.281 268.289 467.494 267.75 467.774 267.289C468.053 266.828 468.403 266.472 468.822 266.22C469.249 265.961 469.738 265.832 470.29 265.832C470.444 265.832 470.608 265.846 470.783 265.874C470.964 265.895 471.108 265.926 471.212 265.968ZM479.698 274.974V269.742C479.698 269.358 479.631 269.026 479.499 268.746C479.366 268.467 479.163 268.25 478.891 268.096C478.618 267.943 478.272 267.866 477.853 267.866C477.482 267.866 477.157 267.929 476.878 268.055C476.605 268.18 476.395 268.359 476.249 268.589C476.102 268.813 476.029 269.071 476.029 269.365H473.25C473.25 268.897 473.362 268.453 473.586 268.034C473.81 267.607 474.128 267.23 474.54 266.901C474.959 266.566 475.459 266.304 476.039 266.115C476.626 265.926 477.283 265.832 478.01 265.832C478.87 265.832 479.635 265.979 480.306 266.272C480.984 266.559 481.515 266.992 481.899 267.572C482.291 268.152 482.486 268.883 482.486 269.763V274.711C482.486 275.278 482.521 275.763 482.591 276.169C482.668 276.567 482.78 276.913 482.927 277.207V277.385H480.107C479.974 277.098 479.872 276.735 479.803 276.294C479.733 275.847 479.698 275.407 479.698 274.974ZM480.086 270.476L480.107 272.122H478.356C477.923 272.122 477.542 272.168 477.213 272.258C476.885 272.342 476.616 272.468 476.406 272.636C476.196 272.797 476.039 272.992 475.934 273.223C475.829 273.446 475.777 273.702 475.777 273.988C475.777 274.268 475.84 274.519 475.966 274.743C476.098 274.967 476.287 275.145 476.532 275.278C476.783 275.403 477.077 275.466 477.412 275.466C477.902 275.466 478.328 275.368 478.691 275.173C479.055 274.97 479.338 274.725 479.541 274.439C479.743 274.152 479.852 273.88 479.865 273.621L480.662 274.816C480.564 275.103 480.418 275.407 480.222 275.728C480.026 276.05 479.775 276.35 479.467 276.63C479.16 276.91 478.789 277.14 478.356 277.322C477.923 277.504 477.419 277.594 476.846 277.594C476.112 277.594 475.455 277.448 474.875 277.154C474.295 276.861 473.838 276.459 473.502 275.949C473.167 275.438 472.999 274.858 472.999 274.208C472.999 273.607 473.111 273.076 473.334 272.615C473.558 272.154 473.89 271.766 474.33 271.451C474.771 271.13 475.316 270.889 475.966 270.728C476.623 270.56 477.374 270.476 478.22 270.476H480.086ZM491.422 266.042V268.034H484.923V266.042H491.422ZM486.663 263.253H489.441V274.114C489.441 274.449 489.486 274.708 489.577 274.89C489.668 275.071 489.804 275.194 489.986 275.257C490.168 275.32 490.385 275.351 490.636 275.351C490.818 275.351 490.986 275.34 491.139 275.32C491.293 275.299 491.422 275.278 491.527 275.257L491.538 277.332C491.307 277.409 491.045 277.472 490.751 277.521C490.465 277.57 490.14 277.594 489.777 277.594C489.155 277.594 488.609 277.49 488.141 277.28C487.673 277.063 487.309 276.717 487.051 276.242C486.792 275.76 486.663 275.124 486.663 274.334V263.253ZM497.276 266.042V277.385H494.498V266.042H497.276ZM494.31 263.075C494.31 262.663 494.449 262.32 494.729 262.047C495.015 261.775 495.4 261.639 495.882 261.639C496.364 261.639 496.745 261.775 497.025 262.047C497.311 262.32 497.455 262.663 497.455 263.075C497.455 263.48 497.311 263.819 497.025 264.092C496.745 264.364 496.364 264.501 495.882 264.501C495.4 264.501 495.015 264.364 494.729 264.092C494.449 263.819 494.31 263.48 494.31 263.075ZM500.499 271.829V271.608C500.499 270.777 500.618 270.011 500.855 269.313C501.093 268.607 501.439 267.995 501.893 267.478C502.348 266.961 502.903 266.559 503.56 266.272C504.217 265.979 504.965 265.832 505.804 265.832C506.656 265.832 507.411 265.979 508.068 266.272C508.732 266.559 509.291 266.961 509.745 267.478C510.2 267.995 510.546 268.607 510.783 269.313C511.021 270.011 511.14 270.777 511.14 271.608V271.829C511.14 272.653 511.021 273.419 510.783 274.124C510.546 274.823 510.2 275.435 509.745 275.959C509.291 276.476 508.735 276.878 508.079 277.165C507.422 277.451 506.67 277.594 505.825 277.594C504.986 277.594 504.235 277.451 503.571 277.165C502.907 276.878 502.348 276.476 501.893 275.959C501.439 275.435 501.093 274.823 500.855 274.124C500.618 273.419 500.499 272.653 500.499 271.829ZM503.267 271.608V271.829C503.267 272.325 503.316 272.79 503.413 273.223C503.511 273.656 503.662 274.037 503.864 274.366C504.067 274.694 504.329 274.953 504.65 275.141C504.979 275.323 505.37 275.414 505.825 275.414C506.272 275.414 506.656 275.323 506.978 275.141C507.299 274.953 507.561 274.694 507.764 274.366C507.974 274.037 508.127 273.656 508.225 273.223C508.323 272.79 508.372 272.325 508.372 271.829V271.608C508.372 271.119 508.323 270.661 508.225 270.235C508.127 269.802 507.974 269.421 507.764 269.092C507.561 268.757 507.296 268.495 506.967 268.306C506.646 268.11 506.258 268.013 505.804 268.013C505.356 268.013 504.972 268.11 504.65 268.306C504.329 268.495 504.067 268.757 503.864 269.092C503.662 269.421 503.511 269.802 503.413 270.235C503.316 270.661 503.267 271.119 503.267 271.608ZM516.941 268.463V277.385H514.174V266.042H516.773L516.941 268.463ZM516.501 271.304H515.683C515.69 270.48 515.802 269.732 516.019 269.061C516.235 268.39 516.539 267.813 516.931 267.331C517.329 266.849 517.801 266.478 518.346 266.22C518.891 265.961 519.499 265.832 520.17 265.832C520.715 265.832 521.208 265.909 521.648 266.063C522.089 266.216 522.466 266.461 522.781 266.796C523.102 267.132 523.347 267.572 523.514 268.117C523.689 268.656 523.776 269.32 523.776 270.109V277.385H520.988V270.088C520.988 269.571 520.911 269.162 520.757 268.862C520.61 268.561 520.394 268.348 520.107 268.222C519.828 268.096 519.482 268.034 519.069 268.034C518.643 268.034 518.269 268.121 517.948 268.296C517.633 268.463 517.368 268.697 517.151 268.998C516.941 269.299 516.78 269.644 516.669 270.036C516.557 270.427 516.501 270.85 516.501 271.304Z" fill="#14539A"/>
<path d="M386.375 285.192C379.124 294.353 369.244 301.076 358.061 304.459C346.879 307.842 334.929 307.723 323.816 304.118C312.702 300.513 302.958 293.594 295.891 284.291C288.824 274.987 284.772 263.745 284.28 252.072" stroke="#F7D0AC" stroke-width="3.57835"/>
<circle cx="341.675" cy="249.778" r="53.6752" fill="white"/>
<path d="M395.407 249.588C395.407 240.688 393.194 231.927 388.966 224.094C384.739 216.261 378.63 209.603 371.189 204.718C363.749 199.834 355.21 196.876 346.342 196.111C337.474 195.347 328.556 196.8 320.389 200.339" stroke="#ACC1F7" stroke-width="3.57835"/>
<path d="M357.094 264.603V271.103H326.281V265.54L341.062 249.571C342.604 247.821 343.823 246.3 344.719 245.009C345.615 243.717 346.25 242.55 346.625 241.509C347.021 240.446 347.219 239.436 347.219 238.478C347.219 237.082 346.969 235.863 346.469 234.821C345.969 233.759 345.24 232.936 344.281 232.353C343.344 231.769 342.188 231.478 340.812 231.478C339.292 231.478 337.99 231.832 336.906 232.54C335.844 233.228 335.031 234.186 334.469 235.415C333.927 236.644 333.656 238.05 333.656 239.634H325.375C325.375 236.946 326 234.498 327.25 232.29C328.5 230.061 330.292 228.28 332.625 226.946C334.958 225.613 337.729 224.946 340.938 224.946C344.062 224.946 346.708 225.467 348.875 226.509C351.042 227.53 352.688 228.988 353.812 230.884C354.938 232.78 355.5 235.04 355.5 237.665C355.5 239.123 355.26 240.561 354.781 241.978C354.302 243.394 353.625 244.8 352.75 246.196C351.896 247.571 350.875 248.967 349.688 250.384C348.5 251.8 347.177 253.248 345.719 254.728L336.844 264.603H357.094Z" fill="#14539A"/>
<g filter="url(#filter3_d_1163_9357)">
<rect x="274.638" y="385.566" width="280.9" height="86.7749" rx="43.3875" fill="#ACC1F7"/>
</g>
<path d="M344.587 431.099H340.656V428.835H344.587C345.23 428.835 345.751 428.73 346.149 428.52C346.555 428.304 346.852 428.01 347.04 427.64C347.229 427.262 347.323 426.833 347.323 426.35C347.323 425.882 347.229 425.445 347.04 425.04C346.852 424.635 346.555 424.306 346.149 424.054C345.751 423.803 345.23 423.677 344.587 423.677H341.599V436.666H338.716V421.402H344.587C345.775 421.402 346.789 421.615 347.627 422.042C348.473 422.461 349.116 423.045 349.556 423.792C350.004 424.533 350.227 425.379 350.227 426.329C350.227 427.315 350.004 428.164 349.556 428.877C349.116 429.59 348.473 430.138 347.627 430.523C346.789 430.907 345.775 431.099 344.587 431.099ZM356.123 427.64V436.666H353.356V425.323H355.976L356.123 427.64ZM359.572 425.25L359.53 427.828C359.377 427.801 359.202 427.78 359.006 427.766C358.817 427.752 358.639 427.745 358.471 427.745C358.045 427.745 357.671 427.804 357.35 427.923C357.028 428.035 356.759 428.199 356.543 428.416C356.333 428.632 356.172 428.898 356.06 429.212C355.948 429.52 355.886 429.869 355.872 430.261L355.274 430.187C355.274 429.467 355.347 428.8 355.494 428.185C355.641 427.57 355.854 427.032 356.134 426.57C356.413 426.109 356.763 425.753 357.182 425.501C357.608 425.243 358.098 425.113 358.65 425.113C358.803 425.113 358.968 425.127 359.142 425.155C359.324 425.176 359.467 425.208 359.572 425.25ZM361.38 431.11V430.89C361.38 430.058 361.498 429.293 361.736 428.594C361.974 427.888 362.32 427.276 362.774 426.759C363.228 426.242 363.784 425.84 364.441 425.554C365.098 425.26 365.846 425.113 366.684 425.113C367.537 425.113 368.292 425.26 368.949 425.554C369.613 425.84 370.172 426.242 370.626 426.759C371.08 427.276 371.426 427.888 371.664 428.594C371.901 429.293 372.02 430.058 372.02 430.89V431.11C372.02 431.934 371.901 432.7 371.664 433.406C371.426 434.105 371.08 434.716 370.626 435.24C370.172 435.757 369.616 436.159 368.959 436.446C368.302 436.732 367.551 436.876 366.705 436.876C365.866 436.876 365.115 436.732 364.451 436.446C363.787 436.159 363.228 435.757 362.774 435.24C362.32 434.716 361.974 434.105 361.736 433.406C361.498 432.7 361.38 431.934 361.38 431.11ZM364.147 430.89V431.11C364.147 431.606 364.196 432.071 364.294 432.504C364.392 432.937 364.542 433.318 364.745 433.647C364.947 433.975 365.21 434.234 365.531 434.423C365.859 434.604 366.251 434.695 366.705 434.695C367.152 434.695 367.537 434.604 367.858 434.423C368.18 434.234 368.442 433.975 368.645 433.647C368.854 433.318 369.008 432.937 369.106 432.504C369.204 432.071 369.253 431.606 369.253 431.11V430.89C369.253 430.4 369.204 429.943 369.106 429.516C369.008 429.083 368.854 428.702 368.645 428.374C368.442 428.038 368.176 427.776 367.848 427.587C367.526 427.392 367.138 427.294 366.684 427.294C366.237 427.294 365.852 427.392 365.531 427.587C365.21 427.776 364.947 428.038 364.745 428.374C364.542 428.702 364.392 429.083 364.294 429.516C364.196 429.943 364.147 430.4 364.147 430.89ZM382.319 425.323H384.835V436.32C384.835 437.347 384.612 438.218 384.164 438.93C383.724 439.65 383.105 440.195 382.309 440.566C381.512 440.943 380.586 441.132 379.531 441.132C379.076 441.132 378.584 441.069 378.052 440.943C377.528 440.817 377.022 440.618 376.532 440.346C376.05 440.08 375.648 439.734 375.327 439.308L376.574 437.672C376.952 438.113 377.378 438.445 377.853 438.668C378.328 438.899 378.842 439.014 379.394 439.014C379.953 439.014 380.429 438.909 380.82 438.7C381.218 438.497 381.522 438.197 381.732 437.798C381.949 437.407 382.057 436.925 382.057 436.352V427.912L382.319 425.323ZM374.656 431.131V430.911C374.656 430.044 374.761 429.258 374.97 428.552C375.18 427.839 375.48 427.227 375.872 426.717C376.27 426.207 376.749 425.812 377.308 425.533C377.874 425.253 378.51 425.113 379.216 425.113C379.964 425.113 380.593 425.25 381.103 425.522C381.62 425.795 382.047 426.183 382.382 426.686C382.725 427.189 382.99 427.787 383.179 428.478C383.375 429.163 383.525 429.918 383.63 430.743V431.34C383.532 432.144 383.375 432.881 383.158 433.552C382.948 434.223 382.669 434.81 382.319 435.314C381.97 435.81 381.536 436.194 381.019 436.467C380.502 436.739 379.894 436.876 379.195 436.876C378.496 436.876 377.867 436.732 377.308 436.446C376.749 436.159 376.27 435.757 375.872 435.24C375.48 434.723 375.18 434.115 374.97 433.416C374.761 432.717 374.656 431.955 374.656 431.131ZM377.423 430.911V431.131C377.423 431.62 377.472 432.078 377.57 432.504C377.668 432.93 377.818 433.308 378.021 433.636C378.224 433.958 378.479 434.209 378.786 434.391C379.094 434.573 379.461 434.664 379.887 434.664C380.46 434.664 380.928 434.545 381.292 434.307C381.662 434.063 381.942 433.731 382.13 433.311C382.326 432.885 382.452 432.406 382.508 431.875V430.229C382.473 429.81 382.396 429.422 382.277 429.066C382.165 428.709 382.008 428.402 381.805 428.143C381.603 427.884 381.344 427.682 381.03 427.535C380.715 427.388 380.341 427.315 379.908 427.315C379.489 427.315 379.122 427.409 378.807 427.598C378.493 427.78 378.234 428.035 378.031 428.363C377.829 428.692 377.675 429.073 377.57 429.506C377.472 429.939 377.423 430.407 377.423 430.911ZM391.171 427.64V436.666H388.404V425.323H391.025L391.171 427.64ZM394.62 425.25L394.579 427.828C394.425 427.801 394.25 427.78 394.054 427.766C393.866 427.752 393.687 427.745 393.52 427.745C393.093 427.745 392.719 427.804 392.398 427.923C392.076 428.035 391.807 428.199 391.591 428.416C391.381 428.632 391.22 428.898 391.108 429.212C390.997 429.52 390.934 429.869 390.92 430.261L390.322 430.187C390.322 429.467 390.396 428.8 390.542 428.185C390.689 427.57 390.902 427.032 391.182 426.57C391.461 426.109 391.811 425.753 392.23 425.501C392.657 425.243 393.146 425.113 393.698 425.113C393.852 425.113 394.016 425.127 394.191 425.155C394.372 425.176 394.516 425.208 394.62 425.25ZM402.099 436.876C401.24 436.876 400.467 436.736 399.782 436.456C399.098 436.177 398.514 435.789 398.032 435.293C397.557 434.789 397.19 434.206 396.931 433.542C396.679 432.871 396.554 432.151 396.554 431.382V430.963C396.554 430.089 396.679 429.296 396.931 428.583C397.183 427.863 397.539 427.245 398 426.728C398.462 426.211 399.014 425.812 399.657 425.533C400.3 425.253 401.009 425.113 401.785 425.113C402.589 425.113 403.298 425.25 403.913 425.522C404.528 425.788 405.042 426.165 405.454 426.654C405.866 427.144 406.177 427.731 406.387 428.416C406.597 429.093 406.702 429.845 406.702 430.669V431.833H397.812V429.925H403.976V429.715C403.962 429.275 403.878 428.873 403.724 428.51C403.571 428.139 403.333 427.846 403.011 427.629C402.69 427.406 402.274 427.294 401.764 427.294C401.352 427.294 400.992 427.385 400.684 427.566C400.384 427.741 400.132 427.993 399.929 428.321C399.734 428.643 399.587 429.027 399.489 429.474C399.391 429.922 399.342 430.418 399.342 430.963V431.382C399.342 431.858 399.405 432.298 399.531 432.703C399.664 433.109 399.856 433.462 400.107 433.762C400.366 434.056 400.674 434.286 401.03 434.454C401.393 434.615 401.806 434.695 402.267 434.695C402.847 434.695 403.371 434.583 403.84 434.36C404.315 434.129 404.727 433.79 405.077 433.343L406.471 434.789C406.233 435.139 405.912 435.474 405.506 435.796C405.108 436.117 404.626 436.379 404.06 436.582C403.494 436.778 402.84 436.876 402.099 436.876ZM415.868 433.563C415.868 433.325 415.805 433.112 415.68 432.923C415.554 432.735 415.316 432.563 414.967 432.41C414.624 432.249 414.121 432.099 413.457 431.959C412.87 431.833 412.328 431.676 411.832 431.487C411.336 431.298 410.91 431.071 410.553 430.806C410.197 430.533 409.917 430.215 409.715 429.852C409.519 429.481 409.421 429.055 409.421 428.573C409.421 428.105 409.522 427.664 409.725 427.252C409.928 426.833 410.221 426.466 410.606 426.151C410.99 425.83 411.458 425.578 412.01 425.396C412.563 425.208 413.185 425.113 413.876 425.113C414.841 425.113 415.669 425.271 416.361 425.585C417.06 425.9 417.595 426.333 417.965 426.885C418.335 427.43 418.521 428.045 418.521 428.73H415.753C415.753 428.43 415.683 428.157 415.543 427.912C415.411 427.668 415.204 427.472 414.925 427.325C414.645 427.172 414.292 427.095 413.866 427.095C413.482 427.095 413.157 427.158 412.891 427.283C412.632 427.409 412.437 427.573 412.304 427.776C412.171 427.979 412.105 428.202 412.105 428.447C412.105 428.629 412.14 428.793 412.21 428.94C412.286 429.079 412.409 429.209 412.576 429.328C412.744 429.446 412.971 429.555 413.258 429.653C413.551 429.75 413.911 429.845 414.338 429.936C415.183 430.103 415.921 430.327 416.55 430.607C417.186 430.879 417.682 431.243 418.038 431.697C418.395 432.151 418.573 432.731 418.573 433.437C418.573 433.94 418.465 434.402 418.248 434.821C418.031 435.233 417.717 435.593 417.305 435.901C416.892 436.208 416.399 436.449 415.826 436.624C415.253 436.792 414.607 436.876 413.887 436.876C412.846 436.876 411.965 436.69 411.245 436.32C410.525 435.943 409.98 435.467 409.61 434.894C409.239 434.314 409.054 433.713 409.054 433.091H411.706C411.727 433.531 411.846 433.884 412.063 434.15C412.279 434.416 412.552 434.608 412.881 434.727C413.216 434.838 413.569 434.894 413.939 434.894C414.359 434.894 414.712 434.838 414.998 434.727C415.285 434.608 415.501 434.451 415.648 434.255C415.795 434.052 415.868 433.822 415.868 433.563ZM427.991 433.563C427.991 433.325 427.928 433.112 427.803 432.923C427.677 432.735 427.439 432.563 427.09 432.41C426.747 432.249 426.244 432.099 425.58 431.959C424.993 431.833 424.451 431.676 423.955 431.487C423.459 431.298 423.033 431.071 422.676 430.806C422.32 430.533 422.04 430.215 421.838 429.852C421.642 429.481 421.544 429.055 421.544 428.573C421.544 428.105 421.645 427.664 421.848 427.252C422.051 426.833 422.344 426.466 422.729 426.151C423.113 425.83 423.581 425.578 424.133 425.396C424.686 425.208 425.308 425.113 425.999 425.113C426.964 425.113 427.792 425.271 428.484 425.585C429.183 425.9 429.718 426.333 430.088 426.885C430.458 427.43 430.644 428.045 430.644 428.73H427.876C427.876 428.43 427.806 428.157 427.666 427.912C427.534 427.668 427.327 427.472 427.048 427.325C426.768 427.172 426.415 427.095 425.989 427.095C425.605 427.095 425.28 427.158 425.014 427.283C424.755 427.409 424.56 427.573 424.427 427.776C424.294 427.979 424.228 428.202 424.228 428.447C424.228 428.629 424.263 428.793 424.333 428.94C424.409 429.079 424.532 429.209 424.7 429.328C424.867 429.446 425.094 429.555 425.381 429.653C425.675 429.75 426.034 429.845 426.461 429.936C427.306 430.103 428.044 430.327 428.673 430.607C429.309 430.879 429.805 431.243 430.161 431.697C430.518 432.151 430.696 432.731 430.696 433.437C430.696 433.94 430.588 434.402 430.371 434.821C430.154 435.233 429.84 435.593 429.428 435.901C429.015 436.208 428.523 436.449 427.949 436.624C427.376 436.792 426.73 436.876 426.01 436.876C424.969 436.876 424.088 436.69 423.368 436.32C422.648 435.943 422.103 435.467 421.733 434.894C421.362 434.314 421.177 433.713 421.177 433.091H423.829C423.85 433.531 423.969 433.884 424.186 434.15C424.403 434.416 424.675 434.608 425.004 434.727C425.339 434.838 425.692 434.894 426.062 434.894C426.482 434.894 426.835 434.838 427.121 434.727C427.408 434.608 427.624 434.451 427.771 434.255C427.918 434.052 427.991 433.822 427.991 433.563ZM446.534 421.402V436.666H443.662V421.402H446.534ZM451.273 421.402V423.677H438.976V421.402H451.273ZM456.089 427.64V436.666H453.321V425.323H455.942L456.089 427.64ZM459.538 425.25L459.496 427.828C459.342 427.801 459.168 427.78 458.972 427.766C458.783 427.752 458.605 427.745 458.437 427.745C458.011 427.745 457.637 427.804 457.316 427.923C456.994 428.035 456.725 428.199 456.508 428.416C456.299 428.632 456.138 428.898 456.026 429.212C455.914 429.52 455.851 429.869 455.837 430.261L455.24 430.187C455.24 429.467 455.313 428.8 455.46 428.185C455.607 427.57 455.82 427.032 456.1 426.57C456.379 426.109 456.729 425.753 457.148 425.501C457.574 425.243 458.063 425.113 458.616 425.113C458.769 425.113 458.934 425.127 459.108 425.155C459.29 425.176 459.433 425.208 459.538 425.25ZM468.023 434.255V429.024C468.023 428.639 467.957 428.307 467.824 428.028C467.691 427.748 467.489 427.531 467.216 427.378C466.944 427.224 466.598 427.147 466.178 427.147C465.808 427.147 465.483 427.21 465.203 427.336C464.931 427.462 464.721 427.64 464.574 427.87C464.428 428.094 464.354 428.353 464.354 428.646H461.576C461.576 428.178 461.688 427.734 461.912 427.315C462.135 426.888 462.453 426.511 462.866 426.183C463.285 425.847 463.785 425.585 464.365 425.396C464.952 425.208 465.609 425.113 466.336 425.113C467.195 425.113 467.96 425.26 468.631 425.554C469.309 425.84 469.841 426.273 470.225 426.854C470.616 427.434 470.812 428.164 470.812 429.045V433.993C470.812 434.559 470.847 435.045 470.917 435.45C470.994 435.848 471.106 436.194 471.252 436.488V436.666H468.432C468.299 436.379 468.198 436.016 468.128 435.576C468.058 435.128 468.023 434.688 468.023 434.255ZM468.411 429.757L468.432 431.403H466.682C466.248 431.403 465.867 431.449 465.539 431.54C465.21 431.623 464.941 431.749 464.732 431.917C464.522 432.078 464.365 432.273 464.26 432.504C464.155 432.728 464.103 432.983 464.103 433.269C464.103 433.549 464.165 433.801 464.291 434.024C464.424 434.248 464.613 434.426 464.857 434.559C465.109 434.685 465.403 434.748 465.738 434.748C466.227 434.748 466.654 434.65 467.017 434.454C467.38 434.251 467.663 434.007 467.866 433.72C468.069 433.434 468.177 433.161 468.191 432.902L468.988 434.098C468.89 434.384 468.743 434.688 468.548 435.01C468.352 435.331 468.1 435.632 467.793 435.911C467.485 436.191 467.115 436.421 466.682 436.603C466.248 436.785 465.745 436.876 465.172 436.876C464.438 436.876 463.781 436.729 463.201 436.435C462.621 436.142 462.163 435.74 461.828 435.23C461.492 434.72 461.324 434.14 461.324 433.49C461.324 432.888 461.436 432.357 461.66 431.896C461.884 431.435 462.216 431.047 462.656 430.732C463.096 430.411 463.641 430.17 464.291 430.009C464.948 429.841 465.7 429.757 466.545 429.757H468.411ZM479.035 434.695C479.427 434.695 479.776 434.618 480.084 434.464C480.391 434.311 480.636 434.094 480.817 433.815C481.006 433.535 481.107 433.21 481.121 432.84H483.732C483.718 433.608 483.501 434.297 483.082 434.905C482.662 435.513 482.103 435.995 481.404 436.352C480.713 436.701 479.937 436.876 479.077 436.876C478.204 436.876 477.442 436.729 476.792 436.435C476.142 436.142 475.6 435.733 475.167 435.209C474.74 434.685 474.419 434.077 474.202 433.385C473.993 432.693 473.888 431.952 473.888 431.162V430.827C473.888 430.037 473.993 429.296 474.202 428.604C474.419 427.912 474.74 427.304 475.167 426.78C475.6 426.256 476.142 425.847 476.792 425.554C477.442 425.26 478.2 425.113 479.067 425.113C479.982 425.113 480.786 425.291 481.478 425.648C482.177 426.004 482.722 426.508 483.113 427.158C483.512 427.808 483.718 428.573 483.732 429.453H481.121C481.107 429.048 481.017 428.685 480.849 428.363C480.681 428.042 480.443 427.783 480.136 427.587C479.828 427.392 479.455 427.294 479.014 427.294C478.546 427.294 478.155 427.392 477.84 427.587C477.533 427.783 477.291 428.052 477.117 428.395C476.949 428.73 476.83 429.107 476.76 429.527C476.697 429.939 476.666 430.372 476.666 430.827V431.162C476.666 431.623 476.697 432.064 476.76 432.483C476.83 432.902 476.949 433.28 477.117 433.615C477.291 433.944 477.533 434.206 477.84 434.402C478.155 434.597 478.553 434.695 479.035 434.695ZM489.418 420.553V436.666H486.65V420.553H489.418ZM496.526 425.323L491.588 430.869L488.915 433.584L488.034 431.435L490.099 428.835L493.182 425.323H496.526ZM493.695 436.666L490.183 431.382L492.028 429.59L496.903 436.666H493.695ZM502.002 425.323V436.666H499.224V425.323H502.002ZM499.036 422.356C499.036 421.944 499.175 421.601 499.455 421.329C499.741 421.056 500.126 420.92 500.608 420.92C501.09 420.92 501.471 421.056 501.751 421.329C502.037 421.601 502.181 421.944 502.181 422.356C502.181 422.761 502.037 423.1 501.751 423.373C501.471 423.646 501.09 423.782 500.608 423.782C500.126 423.782 499.741 423.646 499.455 423.373C499.175 423.1 499.036 422.761 499.036 422.356ZM508.433 427.745V436.666H505.665V425.323H508.265L508.433 427.745ZM507.993 430.586H507.175C507.182 429.761 507.294 429.013 507.51 428.342C507.727 427.671 508.031 427.095 508.422 426.612C508.821 426.13 509.293 425.76 509.838 425.501C510.383 425.243 510.991 425.113 511.662 425.113C512.207 425.113 512.7 425.19 513.14 425.344C513.58 425.498 513.958 425.742 514.272 426.078C514.594 426.413 514.838 426.854 515.006 427.399C515.181 427.937 515.268 428.601 515.268 429.391V436.666H512.479V429.37C512.479 428.852 512.403 428.444 512.249 428.143C512.102 427.842 511.885 427.629 511.599 427.503C511.319 427.378 510.973 427.315 510.561 427.315C510.135 427.315 509.761 427.402 509.439 427.577C509.125 427.745 508.859 427.979 508.643 428.279C508.433 428.58 508.272 428.926 508.16 429.317C508.048 429.709 507.993 430.131 507.993 430.586ZM525.997 425.323H528.513V436.32C528.513 437.347 528.289 438.218 527.842 438.93C527.402 439.65 526.783 440.195 525.986 440.566C525.19 440.943 524.264 441.132 523.208 441.132C522.754 441.132 522.261 441.069 521.73 440.943C521.206 440.817 520.699 440.618 520.21 440.346C519.728 440.08 519.326 439.734 519.004 439.308L520.252 437.672C520.629 438.113 521.056 438.445 521.531 438.668C522.006 438.899 522.52 439.014 523.072 439.014C523.631 439.014 524.106 438.909 524.498 438.7C524.896 438.497 525.2 438.197 525.41 437.798C525.626 437.407 525.735 436.925 525.735 436.352V427.912L525.997 425.323ZM518.333 431.131V430.911C518.333 430.044 518.438 429.258 518.648 428.552C518.858 427.839 519.158 427.227 519.55 426.717C519.948 426.207 520.427 425.812 520.986 425.533C521.552 425.253 522.188 425.113 522.894 425.113C523.642 425.113 524.271 425.25 524.781 425.522C525.298 425.795 525.724 426.183 526.06 426.686C526.402 427.189 526.668 427.787 526.856 428.478C527.052 429.163 527.202 429.918 527.307 430.743V431.34C527.209 432.144 527.052 432.881 526.835 433.552C526.626 434.223 526.346 434.81 525.997 435.314C525.647 435.81 525.214 436.194 524.697 436.467C524.18 436.739 523.572 436.876 522.873 436.876C522.174 436.876 521.545 436.732 520.986 436.446C520.427 436.159 519.948 435.757 519.55 435.24C519.158 434.723 518.858 434.115 518.648 433.416C518.438 432.717 518.333 431.955 518.333 431.131ZM521.101 430.911V431.131C521.101 431.62 521.15 432.078 521.248 432.504C521.346 432.93 521.496 433.308 521.699 433.636C521.901 433.958 522.156 434.209 522.464 434.391C522.771 434.573 523.138 434.664 523.565 434.664C524.138 434.664 524.606 434.545 524.969 434.307C525.34 434.063 525.619 433.731 525.808 433.311C526.004 432.885 526.13 432.406 526.186 431.875V430.229C526.151 429.81 526.074 429.422 525.955 429.066C525.843 428.709 525.686 428.402 525.483 428.143C525.28 427.884 525.022 427.682 524.707 427.535C524.393 427.388 524.019 427.315 523.586 427.315C523.166 427.315 522.799 427.409 522.485 427.598C522.17 427.78 521.912 428.035 521.709 428.363C521.506 428.692 521.353 429.073 521.248 429.506C521.15 429.939 521.101 430.407 521.101 430.911Z" fill="#14539A"/>
<path d="M313.914 465.005C306.663 474.165 296.782 480.889 285.6 484.272C274.417 487.655 262.467 487.536 251.354 483.931C240.241 480.325 230.497 473.407 223.43 464.103C216.363 454.8 212.311 443.557 211.818 431.884" stroke="#F7D0AC" stroke-width="3.57835"/>
<circle cx="269.675" cy="429.778" r="53.6752" fill="white"/>
<path d="M322.946 429.401C322.946 420.5 320.733 411.739 316.505 403.906C312.277 396.074 306.168 389.415 298.728 384.531C291.287 379.646 282.748 376.688 273.881 375.924C265.013 375.159 256.094 376.612 247.927 380.152" stroke="#ACC1F7" stroke-width="3.57835"/>
<path d="M263.312 424.696H267.969C269.615 424.696 270.969 424.415 272.031 423.853C273.115 423.269 273.917 422.478 274.437 421.478C274.979 420.457 275.25 419.28 275.25 417.946C275.25 416.634 275.01 415.498 274.531 414.54C274.052 413.561 273.323 412.811 272.344 412.29C271.385 411.748 270.156 411.478 268.656 411.478C267.448 411.478 266.333 411.717 265.312 412.196C264.312 412.675 263.51 413.363 262.906 414.259C262.323 415.134 262.031 416.186 262.031 417.415H253.75C253.75 414.957 254.396 412.8 255.687 410.946C257 409.071 258.771 407.603 261 406.54C263.229 405.478 265.719 404.946 268.469 404.946C271.469 404.946 274.094 405.446 276.344 406.446C278.615 407.425 280.375 408.873 281.625 410.79C282.896 412.707 283.531 415.082 283.531 417.915C283.531 419.269 283.208 420.623 282.562 421.978C281.937 423.311 281.01 424.519 279.781 425.603C278.573 426.665 277.083 427.53 275.312 428.196C273.562 428.842 271.552 429.165 269.281 429.165H263.312V424.696ZM263.312 431.071V426.665H269.281C271.844 426.665 274.062 426.967 275.937 427.571C277.833 428.155 279.396 428.988 280.625 430.071C281.854 431.134 282.76 432.373 283.344 433.79C283.948 435.207 284.25 436.728 284.25 438.353C284.25 440.478 283.854 442.373 283.062 444.04C282.271 445.686 281.156 447.082 279.719 448.228C278.302 449.373 276.635 450.248 274.719 450.853C272.802 451.436 270.729 451.728 268.5 451.728C266.562 451.728 264.677 451.467 262.844 450.946C261.031 450.405 259.396 449.603 257.937 448.54C256.479 447.457 255.323 446.103 254.469 444.478C253.615 442.832 253.187 440.925 253.187 438.759H261.469C261.469 440.009 261.771 441.123 262.375 442.103C263 443.082 263.854 443.853 264.937 444.415C266.042 444.957 267.281 445.228 268.656 445.228C270.177 445.228 271.479 444.957 272.562 444.415C273.667 443.853 274.51 443.061 275.094 442.04C275.677 440.998 275.969 439.759 275.969 438.321C275.969 436.613 275.646 435.228 275 434.165C274.354 433.103 273.427 432.321 272.219 431.821C271.031 431.321 269.615 431.071 267.969 431.071H263.312Z" fill="#14539A"/>
<circle cx="132.399" cy="144.028" r="7.1567" fill="#D9D9D9"/>
<circle cx="132.399" cy="144.028" r="4.47293" fill="#0A2463"/>
<circle cx="221.858" cy="251.378" r="7.1567" fill="#D9D9D9"/>
<circle cx="221.858" cy="251.378" r="4.47293" fill="#0A2463"/>
<circle cx="135.083" cy="360.517" r="7.1567" fill="#D9D9D9"/>
<circle cx="135.083" cy="360.517" r="4.47293" fill="#0A2463"/>
<path d="M132.846 136.871V70.6719H210.228" stroke="#ACC1F7" stroke-width="3.57835" stroke-dasharray="3.58 3.58"/>
<path d="M135.083 367.675V433.874H212.464" stroke="#ACC1F7" stroke-width="3.57835" stroke-dasharray="3.58 3.58"/>
<path d="M229.462 250.931H284.926" stroke="#ACC1F7" stroke-width="3.57835" stroke-dasharray="3.58 3.58"/>
<defs>
<filter id="filter0_d_1163_9357" x="26.8376" y="167.287" width="169.077" height="177.128" filterUnits="userSpaceOnUse" color-interpolation-filters="sRGB">
<feFlood flood-opacity="0" result="BackgroundImageFix"/>
<feColorMatrix in="SourceAlpha" type="matrix" values="0 0 0 0 0 0 0 0 0 0 0 0 0 0 0 0 0 0 127 0" result="hardAlpha"/>
<feOffset dy="3.57835"/>
<feGaussianBlur stdDeviation="1.78917"/>
<feComposite in2="hardAlpha" operator="out"/>
<feColorMatrix type="matrix" values="0 0 0 0 0 0 0 0 0 0 0 0 0 0 0 0 0 0 0.25 0"/>
<feBlend mode="normal" in2="BackgroundImageFix" result="effect1_dropShadow_1163_9357"/>
<feBlend mode="normal" in="SourceGraphic" in2="effect1_dropShadow_1163_9357" result="shape"/>
</filter>
<filter id="filter1_d_1163_9357" x="246.011" y="0.893951" width="338.154" height="144.029" filterUnits="userSpaceOnUse" color-interpolation-filters="sRGB">
<feFlood flood-opacity="0" result="BackgroundImageFix"/>
<feColorMatrix in="SourceAlpha" type="matrix" values="0 0 0 0 0 0 0 0 0 0 0 0 0 0 0 0 0 0 127 0" result="hardAlpha"/>
<feOffset dx="3.57835" dy="3.57835"/>
<feGaussianBlur stdDeviation="14.3134"/>
<feComposite in2="hardAlpha" operator="out"/>
<feColorMatrix type="matrix" values="0 0 0 0 0 0 0 0 0 0 0 0 0 0 0 0 0 0 0.16 0"/>
<feBlend mode="normal" in2="BackgroundImageFix" result="effect1_dropShadow_1163_9357"/>
<feBlend mode="normal" in="SourceGraphic" in2="effect1_dropShadow_1163_9357" result="shape"/>
</filter>
<filter id="filter2_d_1163_9357" x="322.051" y="180.706" width="338.154" height="144.029" filterUnits="userSpaceOnUse" color-interpolation-filters="sRGB">
<feFlood flood-opacity="0" result="BackgroundImageFix"/>
<feColorMatrix in="SourceAlpha" type="matrix" values="0 0 0 0 0 0 0 0 0 0 0 0 0 0 0 0 0 0 127 0" result="hardAlpha"/>
<feOffset dx="3.57835" dy="3.57835"/>
<feGaussianBlur stdDeviation="14.3134"/>
<feComposite in2="hardAlpha" operator="out"/>
<feColorMatrix type="matrix" values="0 0 0 0 0 0 0 0 0 0 0 0 0 0 0 0 0 0 0.16 0"/>
<feBlend mode="normal" in2="BackgroundImageFix" result="effect1_dropShadow_1163_9357"/>
<feBlend mode="normal" in="SourceGraphic" in2="effect1_dropShadow_1163_9357" result="shape"/>
</filter>
<filter id="filter3_d_1163_9357" x="249.59" y="360.518" width="338.154" height="144.029" filterUnits="userSpaceOnUse" color-interpolation-filters="sRGB">
<feFlood flood-opacity="0" result="BackgroundImageFix"/>
<feColorMatrix in="SourceAlpha" type="matrix" values="0 0 0 0 0 0 0 0 0 0 0 0 0 0 0 0 0 0 127 0" result="hardAlpha"/>
<feOffset dx="3.57835" dy="3.57835"/>
<feGaussianBlur stdDeviation="14.3134"/>
<feComposite in2="hardAlpha" operator="out"/>
<feColorMatrix type="matrix" values="0 0 0 0 0 0 0 0 0 0 0 0 0 0 0 0 0 0 0.16 0"/>
<feBlend mode="normal" in2="BackgroundImageFix" result="effect1_dropShadow_1163_9357"/>
<feBlend mode="normal" in="SourceGraphic" in2="effect1_dropShadow_1163_9357" result="shape"/>
</filter>
</defs>
</svg>
